<?xml version="1.0" encoding="utf-8"?>
<!DOCTYPE svg PUBLIC "-//W3C//DTD SVG 1.0//EN" "http://www.w3.org/TR/2001/REC-SVG-20010904/DTD/svg10.dtd">
<svg version="1.0" xmlns="http://www.w3.org/2000/svg" width="177px" height="139px" viewBox="0 0 177 139" preserveAspectRatio="xMidYMid meet">
 <g fill="#0b1957" stroke="#none" stroke-width="1">
  <path d="M0 69.5 l0 -69.5 88.5 0 88.5 0 0 5.5 0 5.5 -11 0 c-9.1 0 -12 0.4 -17.4 2.4 -8.5 3.2 -19 10.8 -21.6 15.6 -1.1 2 -9.2 14.8 -18.5 29 -1.3 1.9 -6 9.5 -10.5 16.8 -4.5 7.3 -9.3 14.1 -10.7 15.2 -2.8 2.2 -9.1 2.7 -13.9 1 -1.7 -0.6 -4 -2.8 -5.5 -5.3 -1.5 -2.3 -7 -10.9 -12.4 -19.2 -5.4 -8.2 -13.6 -21.1 -18.2 -28.5 -8.8 -14 -11.7 -17.7 -16.8 -21.3 l-3 -2.2 2.9 5 c3.9 6.7 35.8 60.4 43.3 73 3.3 5.5 8.8 14.8 12.2 20.7 3.5 6 7.4 11.7 8.8 12.8 3.2 2.5 9.8 4.3 12.9 3.6 2.4 -0.6 7.9 -8.4 20.5 -28.9 3 -4.8 7.3 -11.8 9.6 -15.5 4.6 -7.1 16.5 -26.3 19.7 -31.5 1.1 -1.8 3.9 -6.1 6.1 -9.7 2.3 -3.6 7.3 -11.4 11 -17.5 3.7 -6 7.5 -11.6 8.3 -12.2 4.3 -3.4 4.2 -4.5 4.2 61.7 l0 63 -88.5 0 -88.5 0 0 -69.5z m77.4 -6.1 c-3.2 -5.5 -7.3 -12.7 -9.1 -16.1 -3.4 -6.2 -12 -15.1 -17.5 -17.9 -2.7 -1.4 -2.5 -1 2.8 7.3 3.2 4.8 8.5 13.3 11.9 18.8 14.3 23 13.5 22 15.7 19.8 2 -2 1.9 -2.1 -3.8 -11.9z m17.6 -9.8 c0 -2.6 -13.6 -15.6 -16.3 -15.6 -0.6 0 2.9 6 10 17.3 l2.5 4 1.9 -2.4 c1 -1.3 1.9 -2.8 1.9 -3.3z"/>
 </g>
 <g fill="#ffffff" stroke="#ffffff" stroke-width="1">
  <path d="M86.7 131.6 c-5.5 -2 -7 -3.7 -13.9 -15.5 -3.4 -5.8 -9.4 -16 -13.3 -22.6 -23.2 -38.6 -49.5 -83.6 -49.5 -84.6 0 -1.7 6 0 11 3.1 6.7 4.3 10 8.2 19.3 23 4.6 7.4 12.8 20.3 18.2 28.5 5.4 8.3 10.9 16.9 12.4 19.3 3.3 5.4 8.6 7.4 12.6 4.8 2.4 -1.6 8 -9.7 17.4 -25.1 2.3 -3.8 6.4 -10.4 9.1 -14.5 2.7 -4.1 7.1 -11.1 9.9 -15.5 2.7 -4.4 5.8 -8.8 6.8 -9.9 4.2 -4.3 12.8 -9.9 18.9 -12.2 5.6 -2.1 8.1 -2.4 18.9 -2.4 l12.5 0 0 3.1 c0 3 -5.1 11.9 -20.5 35.9 -2.2 3.6 -5 7.9 -6.1 9.7 -3.2 5.2 -15.1 24.4 -19.7 31.5 -2.3 3.7 -6.6 10.7 -9.6 15.5 -10.7 17.4 -18 28.1 -19.6 28.7 -2.8 1 -10.8 0.6 -14.8 -0.8z"/>
  <path d="M77.1 80.9 c-1.1 -1.2 -5.9 -8.5 -10.7 -16.2 -4.9 -7.8 -12.5 -20 -17.1 -27 -4.6 -7 -8.3 -13.4 -8.3 -14.2 0 -2.3 3.5 -1.8 9.9 1.4 8 4.1 16.4 12 20.4 19.4 1.8 3.4 5.8 10.5 8.9 15.7 7.3 12.5 7.5 13.4 4.7 17.4 -3.5 5.1 -5.4 6 -7.8 3.5z"/>
  <path d="M80.4 49.8 c-4.8 -7.9 -8.9 -15.2 -9.2 -16.2 -0.5 -1.7 -0.1 -1.8 2.9 -1.2 8.2 1.6 19.5 9.9 23.7 17.4 l2.2 4 -3.2 4.8 c-5.4 8.1 -6.3 7.7 -16.4 -8.8z"/>
 </g>
</svg>