<?xml version="1.0" encoding="utf-8"?>
<!DOCTYPE svg PUBLIC "-//W3C//DTD SVG 1.0//EN" "http://www.w3.org/TR/2001/REC-SVG-20010904/DTD/svg10.dtd">
<svg version="1.0" xmlns="http://www.w3.org/2000/svg" width="330px" height="36px" viewBox="0 0 330 36" preserveAspectRatio="xMidYMid meet">
 <g fill="#51cfed" stroke="#51cfed" stroke-width="0.5">
  <path d="M13.70 28.65 c-0.50 -0.50 -1.35 -1.10 -1.90 -1.40 -0.55 -0.30 -1.30 -1.10 -1.65 -1.75 -0.80 -1.60 -0.85 -6.10 -0.05 -6.90 0.45 -0.45 0.40 -0.80 -0.25 -1.50 -0.45 -0.50 -0.85 -1.75 -0.85 -2.70 0 -1.40 0.35 -2.10 1.60 -3.15 1.55 -1.30 1.80 -1.35 5.60 -1.05 3.85 0.25 4.05 0.35 6 2.35 2.25 2.35 3.60 6.30 4.15 12.10 l0.30 3.35 -2.20 0 c-1.20 0.05 -2.75 0.35 -3.45 0.75 -1.80 1.05 -6.20 0.95 -7.30 -0.10z m6.35 -5.20 c1.05 -2 -1.10 -4.50 -3.05 -3.45 -1.35 0.70 -1.60 1.90 -0.70 3.30 1 1.50 2.95 1.60 3.75 0.15z"/>
  <path d="M39.85 28.30 c-0.45 -0.45 -1.25 -0.80 -1.80 -0.80 -0.85 0 -1.05 -0.30 -1.05 -1.70 0 -0.90 0.35 -2.65 0.75 -3.80 1.05 -2.95 0.95 -3.75 -0.60 -5.50 -1.35 -1.45 -1.45 -1.50 -2.55 -0.75 -1.10 0.80 -1.15 1 -0.80 6.55 l0.35 5.70 -2.55 0 c-1.40 0 -2.65 -0.20 -2.80 -0.40 -0.10 -0.20 -0.35 -2.60 -0.55 -5.35 -0.25 -3.75 -0.60 -5.35 -1.30 -6.40 -0.70 -0.95 -0.95 -2 -0.85 -3.50 l0.15 -2.10 6.75 -0.15 6.75 -0.10 1.90 1.95 c1.60 1.65 1.90 2.35 2.15 4.85 0.20 1.65 0.05 3.85 -0.20 4.90 -0.45 1.65 -0.45 2.05 0.20 2.55 0.55 0.35 0.70 1.15 0.60 2.50 -0.15 1.90 -0.25 2 -1.95 2.15 -1.15 0.10 -2.10 -0.15 -2.60 -0.60z"/>
  <path d="M57.15 27.80 c-0.75 -0.65 -1.85 -1.25 -2.35 -1.35 -1.35 -0.25 -1.95 -2.90 -1.65 -7.10 0.10 -1.85 0 -3.50 -0.20 -3.65 -0.70 -0.40 -0.55 -3.90 0.20 -4.90 0.55 -0.75 1.55 -1 4.50 -1.20 3.40 -0.20 4 -0.10 6 1.05 1.40 0.85 2.45 1.90 2.85 2.95 0.35 0.90 1.10 2.15 1.65 2.75 0.75 0.85 1 2.10 1.20 6.10 l0.30 5.05 -2.25 0 c-1.40 0 -2.50 0.30 -2.90 0.75 -1.05 1.25 -5.65 1 -7.35 -0.45z m6.05 -5.10 c1 -0.95 1 -1.20 -0.15 -2.65 -0.70 -0.95 -1.20 -1.10 -2.25 -0.85 -1.65 0.40 -2.10 1.45 -1.40 3.10 0.65 1.40 2.60 1.65 3.80 0.40z"/>
  <path d="M93.40 27.50 c-0.70 -0.55 -1.90 -1.20 -2.60 -1.50 -2 -0.75 -2.80 -3.20 -2.80 -8.55 l0 -4.60 2 -1.95 c2.05 -1.90 2.05 -1.90 6.30 -1.90 3.95 0 4.35 0.10 5.45 1.30 1.90 2.05 2.25 6.15 0.65 8.05 -0.70 0.85 -6.50 0.85 -7.30 0.05 -0.35 -0.35 -0.60 -1.30 -0.60 -2.10 -0.05 -1.45 -0.05 -1.50 -0.75 -0.60 -1.45 1.90 -0.65 4.70 2 6.90 1.40 1.25 2.15 1.10 3.75 -0.60 1.05 -1.15 1.85 -1.50 3.20 -1.50 l1.80 0 0 2.40 c0 2.35 -0.05 2.50 -2.45 4 -3 1.95 -6.65 2.20 -8.65 0.60z"/>
  <path d="M239 26.25 c0 -1.25 0.20 -2.25 0.50 -2.25 0.25 0 -0.20 -1 -1 -2.20 -1.30 -1.90 -1.50 -2.65 -1.50 -5.75 0 -7.50 4.25 -10.55 11.70 -8.30 1.75 0.55 2.60 0.60 2.80 0.20 0.20 -0.30 1.45 -0.45 2.80 -0.35 l2.45 0.15 0.15 2.05 c0.10 1.40 0.55 2.45 1.40 3.25 l1.20 1.15 0.60 -1.60 c0.55 -1.40 0.85 -1.60 2.40 -1.60 1.55 0 1.90 0.25 2.95 2.10 1.10 1.95 1.25 2 1.85 1.15 1.20 -1.65 0.85 -3.25 -0.85 -3.85 -1.40 -0.50 -1.50 -0.65 -1.35 -2.60 0.15 -2.05 0.15 -2.05 2.35 -2.20 1.25 -0.10 2.75 -0.05 3.40 0.15 1.20 0.30 1.20 0.35 1 4.65 -0.60 10.30 -1.70 13.10 -5.40 13.10 -1.40 0 -2.10 -0.30 -2.85 -1.25 -0.55 -0.70 -1.15 -1.25 -1.30 -1.25 -0.15 0 -0.30 0.55 -0.30 1.25 0 1.15 -0.20 1.25 -2.15 1.25 -2.45 0 -3.55 -0.85 -4.15 -3.25 -0.30 -1.25 -2.95 -7.05 -3.45 -7.65 -0.30 -0.35 -2.75 1.50 -2.75 2.05 0 0.30 -0.55 1.35 -1.20 2.30 -1.80 2.65 -2.10 4.05 -0.90 4.05 0.50 0 1.35 -0.45 1.85 -1 0.60 -0.65 1.55 -1 2.85 -1 l1.90 0 0 2.25 c0 2.10 -0.15 2.35 -2.10 3.60 -1.75 1.15 -2.70 1.40 -5.25 1.40 -2.95 0 -3.15 0.10 -3.15 1.15 0 1 -0.25 1.10 -2.25 1.10 l-2.25 0 0 -2.25z m4.75 -11.80 c1.65 -2.50 1.05 -3.80 -0.90 -1.85 -0.90 0.90 -1.15 1.60 -1 2.55 0.15 0.75 0.30 1.35 0.40 1.35 0.05 0 0.75 -0.95 1.50 -2.05z"/>
  <path d="M116.35 27.30 c-0.45 -0.45 -1.15 -0.80 -1.55 -0.80 -1 0 -1.05 -3.40 -0.05 -6.20 0.80 -2.20 0.60 -3 -1.15 -4.90 -1.15 -1.25 -1.30 -1.30 -2.40 -0.60 -1.15 0.75 -1.15 0.90 -0.85 6.50 l0.30 5.70 -2.50 0 -2.50 0 -0.55 -6.60 c-0.35 -3.65 -0.60 -7.75 -0.60 -9.05 0 -1.65 -0.25 -2.45 -0.75 -2.65 -1 -0.40 -0.95 -3.40 0.05 -4.95 0.65 -1 1.25 -1.25 2.95 -1.25 2 0 2.15 0.10 2.45 1.55 0.15 0.85 0.30 2.35 0.30 3.25 l0 1.70 3.70 0 3.70 0 1.70 2.10 c1.50 1.90 1.65 2.50 1.85 5.95 0.10 2.25 -0.10 4.25 -0.40 4.90 -0.50 0.85 -0.45 1.05 0.20 1.05 0.65 0 0.75 0.45 0.65 2.40 -0.15 2.30 -0.20 2.35 -1.95 2.50 -1.15 0.10 -2.10 -0.15 -2.60 -0.60z"/>
  <path d="M125.55 26.50 c-3.50 -1.85 -4.15 -3.10 -4.40 -8.75 -0.25 -5.10 0.20 -6.35 2.80 -8.10 2.55 -1.70 8.35 -1.65 11.35 0.10 1.20 0.70 2.40 1.65 2.65 2.15 0.45 0.70 0.50 0.55 0.55 -0.75 0 -0.85 0.20 -1.70 0.40 -1.85 0.25 -0.15 3.25 -0.40 6.70 -0.60 6.20 -0.35 6.25 -0.35 7.05 0.85 0.50 0.65 0.85 2.05 0.85 3.05 0 1.60 -0.20 2 -1.30 2.40 -2.15 0.85 -4.70 0.65 -4.70 -0.35 0 -0.80 -0.05 -0.80 -0.80 -0.05 -0.75 0.75 -0.75 1.30 -0.20 5.60 0.35 2.60 0.50 5.10 0.35 5.55 -0.25 0.55 -1 0.75 -2.80 0.75 l-2.45 0 -0.30 -5.35 c-0.20 -3 -0.50 -5.70 -0.75 -6.10 -0.90 -1.75 -1.30 -0.85 -1.15 2.60 0.25 4.90 -0.50 7.75 -2.25 8.15 -0.70 0.20 -1.70 0.75 -2.20 1.25 -1.50 1.50 -6 1.20 -9.40 -0.55z m8.60 -5.55 l1.35 -2.05 -1.45 -1.85 c-0.85 -1.05 -2.40 -2.30 -3.50 -2.80 l-2 -0.90 -1.80 1.35 c-0.95 0.75 -1.75 1.65 -1.75 2 0 0.40 1.05 1.95 2.30 3.50 1.95 2.35 2.60 2.80 3.90 2.80 1.35 0 1.85 -0.35 2.95 -2.05z"/>
  <path d="M72.65 27.15 c-0.30 -0.25 -0.75 -2.80 -1.05 -5.80 -0.30 -3.75 -0.70 -5.65 -1.30 -6.25 -0.50 -0.60 -0.80 -1.80 -0.80 -3.25 l0 -2.35 1.95 0 c1.10 0 2.10 0.20 2.30 0.45 0.15 0.30 0.85 0.20 1.65 -0.25 1.60 -0.80 4.10 -0.90 6.70 -0.20 1.30 0.40 2.20 1.10 3 2.35 1 1.70 1.15 2.55 1.20 8.75 l0.10 6.90 -1.55 0 c-0.90 0 -2.15 -0.15 -2.80 -0.35 -1.15 -0.30 -1.20 -0.40 -0.90 -4.75 0.30 -5 -0.05 -6.65 -1.65 -7.15 -1.90 -0.60 -2.25 0.45 -2.25 6.40 l0 5.60 -2 0.15 c-1.10 0.05 -2.25 -0.05 -2.60 -0.25z"/>
  <path d="M283 25.75 c0 -0.95 0.25 -1.75 0.50 -1.75 0.30 0 -0.15 -1 -1 -2.25 -1.80 -2.65 -2.40 -6.20 -1.50 -8.95 0.30 -1 0.80 -1.80 1.05 -1.80 0.25 0 0.45 -0.45 0.45 -0.95 0 -0.55 0.60 -1.45 1.30 -2 1.55 -1.20 6.25 -1.40 9.20 -0.40 1.60 0.55 1.75 0.80 1.90 2.65 0.15 1.80 -0.05 2.25 -1.60 3.60 -1 0.85 -1.80 1.95 -1.80 2.45 0 0.50 -0.45 1.60 -1 2.40 -1.35 2.05 -1.25 2.25 0.70 2.25 1.25 0 1.75 -0.25 1.95 -1 0.20 -0.75 0.70 -1 2.05 -1 1.75 0 1.80 0.05 1.80 2 0 1.80 -0.10 2 -1.25 2 -0.90 0 -1.25 0.25 -1.25 0.95 0 1.65 -1.25 2.15 -4.75 1.95 -2.85 -0.15 -3.25 -0.05 -3.25 0.75 0 0.65 -0.40 0.85 -1.75 0.85 -1.65 0 -1.75 -0.10 -1.75 -1.75z m5.10 -12.45 c0.80 -0.60 0.95 -0.95 0.55 -1.35 -0.40 -0.40 -0.95 -0.40 -2.10 0.10 -1.30 0.60 -1.55 0.95 -1.55 2.50 0 2.40 0.60 2.85 1.35 1.05 0.35 -0.85 1.15 -1.90 1.75 -2.30z"/>
  <path d="M200.15 26.50 c-0.65 -0.25 -1.15 -0.80 -1.15 -1.25 0 -0.45 -0.45 -0.75 -1.25 -0.75 -0.70 0 -1.45 -0.40 -1.75 -0.95 -0.65 -1.25 -0.65 -6.80 0 -8.05 0.35 -0.65 0.30 -1.05 -0.25 -1.50 -0.95 -0.80 -1 -4.20 -0.05 -4.95 0.35 -0.30 2.45 -0.70 4.65 -0.90 4.85 -0.35 5.85 0.15 8.35 4.30 1.70 2.75 2.65 6.05 3.15 10.70 l0.25 2.35 -2.25 0 c-1.25 0 -2.90 0.35 -3.65 0.75 -1.60 0.80 -4.35 0.95 -6.05 0.25z m4.85 -8.25 c-1.35 -1.45 -1.90 -1.50 -3.30 -0.55 -0.75 0.55 -0.95 1.15 -0.80 2.50 0.20 1.65 0.30 1.75 2.30 1.90 1.85 0.15 2.10 0 2.50 -1.25 0.35 -1.15 0.25 -1.60 -0.70 -2.60z"/>
  <path d="M162.80 25.40 c-0.15 -0.35 -0.35 -3 -0.50 -5.85 -0.15 -2.85 -0.50 -5.45 -0.80 -5.75 -0.65 -0.65 -0.65 -4.15 0 -4.55 0.35 -0.20 0.35 -0.60 0 -1.25 -0.25 -0.50 -0.50 -1.75 -0.50 -2.75 l0 -1.80 2.65 0.15 2.60 0.15 0.15 2.50 c0.05 1.40 0.45 5.50 0.85 9.20 0.40 3.70 0.75 7.55 0.75 8.60 l0 1.95 -2.50 0 c-1.60 0 -2.60 -0.25 -2.70 -0.60z"/>
  <path d="M171.75 25.40 c-0.10 -0.35 -0.30 -2.90 -0.40 -5.60 -0.20 -4.65 -0.30 -5.05 -1.55 -5.95 -1.05 -0.75 -1.30 -1.35 -1.30 -3.15 l0 -2.25 2.90 0 c1.55 0 4.20 -0.15 5.90 -0.25 5.85 -0.50 8.40 1.80 8.35 7.55 0 1.65 -0.05 4.65 -0.10 6.65 l-0.10 3.60 -2 0 c-1.75 0 -1.95 -0.15 -1.95 -1.25 0 -0.70 -0.25 -1.25 -0.55 -1.25 -0.40 0 -0.50 -1.05 -0.35 -3.50 0.20 -2.80 0.10 -3.75 -0.65 -5 -1 -1.60 -2.15 -1.90 -3.55 -0.80 -0.75 0.55 -0.80 1.10 -0.30 5.45 0.30 2.60 0.40 5.15 0.25 5.55 -0.40 1 -4.30 1.10 -4.60 0.20z"/>
  <path d="M311.75 24.10 l-2 -1.40 -0.15 -3.90 c-0.10 -2.15 0.10 -4.15 0.35 -4.50 0.35 -0.40 0.20 -0.75 -0.50 -1.20 -0.55 -0.35 -0.95 -0.40 -0.95 -0.10 0 0.25 -1 0.50 -2.25 0.50 -1.70 0 -2.25 -0.20 -2.25 -0.80 0 -0.45 -0.35 -0.70 -0.85 -0.60 -1 0.20 -0.95 0.05 -0.40 7.30 l0.35 4.65 -2.45 -0.15 -2.40 -0.15 -0.50 -5.15 c-0.40 -3.95 -0.70 -5.35 -1.35 -5.85 -0.60 -0.40 -0.90 -1.30 -0.90 -2.70 0 -2 0.05 -2.05 1.65 -2.05 0.85 0 2.60 -0.35 3.85 -0.80 2.30 -0.80 6.05 -0.65 7.20 0.25 0.30 0.25 1.65 0.25 3.05 0.05 5.15 -0.90 6.30 -0.65 8.90 1.65 2.60 2.25 2.75 2.75 3.65 11.40 l0.30 2.80 -2 0.30 c-1.10 0.20 -2.10 0.70 -2.30 1.10 -0.20 0.55 -1.05 0.75 -3.15 0.75 -2.35 -0.05 -3.30 -0.30 -4.90 -1.40z m6.95 -4.45 c1.25 -1.70 0.60 -2.75 -2 -3.30 -1.65 -0.35 -2.05 -0.25 -2.75 0.75 -1.05 1.35 -0.85 1.95 0.95 3.05 1.85 1.15 2.70 1.05 3.80 -0.50z"/>
  <path d="M222.50 21.75 l0 -3.25 1.75 0 1.75 0 0 3.25 0 3.25 -1.75 0 -1.75 0 0 -3.25z"/>
  <path d="M231.10 19.65 c0.45 -5.35 -1.25 -7.90 -4.25 -6.35 -0.75 0.40 -1.35 0.95 -1.35 1.20 0 1.05 -3.10 0.45 -4.80 -0.85 -1.45 -1.20 -1.70 -1.70 -1.70 -3.60 l0 -2.15 2.75 0.20 c1.55 0.15 2.90 0.05 3.05 -0.20 0.15 -0.20 1.85 -0.40 3.80 -0.40 3.30 0 3.60 0.10 5.15 1.65 1.50 1.50 1.65 1.90 1.95 6.10 0.50 6.05 0.05 7.25 -2.75 7.25 l-2.05 0 0.20 -2.85z"/>
 </g>
 <g fill="#51cfed" stroke="#51cfed" stroke-width="0.5">
  <path d="M12.95 28.90 c-0.70 -0.65 -1.80 -1.50 -2.45 -1.95 -1 -0.65 -1.20 -1.30 -1.40 -4.10 -0.15 -2.20 0 -3.60 0.40 -4.10 0.45 -0.55 0.40 -0.95 -0.20 -1.85 -1.25 -1.80 -1 -4.15 0.60 -5.65 1.30 -1.25 1.60 -1.30 5.95 -1.15 4.50 0.15 4.65 0.20 6.40 1.90 2.10 2.05 3.15 4.25 3.80 8 0.70 3.75 0.95 4.55 1.40 4.25 0.25 -0.10 0.30 -1.85 0.15 -3.85 -0.15 -2.60 -0.50 -3.95 -1.15 -4.70 -1.10 -1.20 -1.30 -4.80 -0.30 -5.60 0.30 -0.30 3.40 -0.50 6.95 -0.55 l6.35 0 2 1.60 c1.10 0.90 2.10 1.95 2.25 2.35 0.10 0.40 0.30 4.15 0.40 8.25 l0.15 7.50 -2.25 -0.10 c-1.25 -0.05 -3.10 -0.25 -4.10 -0.40 -1.80 -0.35 -1.90 -0.45 -1.90 -2.30 0 -1.10 0.45 -2.85 1 -3.95 1.35 -2.65 1.30 -4.55 -0.25 -6 -1.05 -1 -1.35 -1.05 -2.05 -0.45 -0.70 0.60 -0.75 1.40 -0.45 6.55 l0.35 5.90 -6.05 -0.05 c-4.70 0 -6.30 0.20 -7.15 0.80 -0.70 0.45 -2.25 0.75 -4.20 0.75 -2.45 0 -3.30 -0.20 -4.25 -1.10z m6.90 -1.90 c1.15 -0.70 2.10 -0.85 3.40 -0.65 l1.85 0.30 -0.30 -1.70 c-1.35 -6.95 -1.95 -8.50 -4 -10.65 -1.75 -1.90 -2.45 -2.25 -4.60 -2.55 -2.40 -0.30 -2.70 -0.25 -4.25 1.20 l-1.70 1.55 1.40 1.15 c1.65 1.35 1.70 2 0.30 3.95 -0.80 1.05 -1 1.90 -0.75 3 0.35 1.70 1.60 3.40 2.50 3.40 0.35 0 0.95 0.45 1.45 1 1.05 1.25 2.65 1.25 4.70 0z m22.95 -0.95 c-0.20 -0.30 -0.80 -0.55 -1.35 -0.55 -1.20 0 -1.25 -1.55 -0.10 -3.35 0.55 -0.85 0.85 -2.25 0.85 -3.95 -0.05 -2.40 -0.25 -2.90 -2 -4.70 -1.70 -1.75 -2.25 -2 -4.10 -2 -1.20 0 -2.85 0.40 -3.65 0.85 -1.30 0.80 -1.45 0.80 -2.35 0 -2 -1.85 -3.30 -0.30 -1.70 2 0.75 1.05 1.10 2.60 1.35 6.40 0.20 2.75 0.45 5.15 0.55 5.35 0.15 0.20 0.70 0.40 1.25 0.40 0.90 0 0.95 -0.25 0.65 -5.70 l-0.35 -5.70 1.70 -1.05 c2.30 -1.40 2.75 -1.35 4.75 0.65 1.50 1.50 1.70 2.05 1.70 4.20 0 1.35 -0.35 3.45 -0.75 4.60 -0.95 2.65 -0.95 2.65 0.20 2.35 0.55 -0.15 1.30 0.20 1.80 0.75 0.55 0.70 1 0.85 1.35 0.50 0.30 -0.30 0.35 -0.75 0.20 -1.05z"/>
  <path d="M14.50 24.25 c-1.90 -3.10 -0.15 -6.25 3.50 -6.25 2.60 0 4 1.45 4 4.15 0 3.20 -0.65 3.85 -3.75 3.85 -2.50 0 -2.75 -0.10 -3.75 -1.75z m5.20 -1.35 c0.40 -0.65 0.30 -1.10 -0.40 -1.85 -1.15 -1.25 -1.30 -1.25 -2.55 -0.35 -0.90 0.65 -0.90 0.85 -0.25 2 0.80 1.50 2.30 1.60 3.20 0.20z"/>
  <path d="M16.65 17.15 c-2 -0.20 -2.15 -0.30 -2.15 -1.70 0 -1.35 -0.15 -1.50 -1.10 -1.20 l-1.15 0.35 1.10 -1.05 c1.45 -1.40 2.05 -1.35 4.80 0.50 2.40 1.55 3.25 3.55 1.50 3.35 -0.50 -0.05 -1.85 -0.15 -3 -0.25z"/>
  <path d="M58.25 29.15 c-0.55 -0.15 -1.40 -0.60 -1.90 -1.05 -0.45 -0.40 -1.35 -1 -2 -1.30 -0.90 -0.45 -1.15 -1.05 -1.25 -3.20 -0.10 -2 0 -2.60 0.55 -2.60 0.45 0 0.95 0.75 1.20 1.85 0.30 1.30 0.75 1.95 1.40 2.10 0.55 0.10 1.65 0.70 2.40 1.35 1.80 1.55 3.10 1.50 4.95 -0.05 1.15 -0.95 1.70 -1.15 2.40 -0.75 1.95 1.05 2.15 0.70 1.80 -3.10 -0.20 -2.35 -0.65 -3.95 -1.20 -4.65 -0.50 -0.55 -1.25 -1.80 -1.70 -2.80 -1.15 -2.60 -4.45 -4.20 -7.55 -3.75 -2.90 0.45 -3.80 1.65 -2.55 3.55 0.45 0.70 1.15 1.25 1.50 1.25 1.05 0 0.85 0.70 -0.55 1.90 -0.70 0.60 -1.25 1.45 -1.25 1.85 0 0.40 -0.35 0.75 -0.75 0.75 -0.55 0 -0.75 -0.55 -0.75 -1.95 0 -1.10 -0.20 -2.15 -0.50 -2.30 -0.85 -0.55 -0.60 -4.55 0.40 -5.75 0.75 -0.95 1.55 -1.20 4.65 -1.35 4.80 -0.30 7.60 1 9.30 4.35 0.65 1.20 1.40 2.35 1.70 2.55 0.75 0.45 1.40 4.25 1.40 8.60 l0.05 3.35 -2.35 0 c-1.35 0 -2.85 0.35 -3.35 0.75 -0.95 0.70 -3.95 0.90 -6.05 0.40z"/>
  <path d="M238.50 28.25 c-0.45 -0.50 -0.55 -1.50 -0.30 -3.20 0.20 -1.50 0.10 -2.60 -0.20 -2.80 -0.30 -0.15 -0.50 0.20 -0.50 0.85 0 2.90 -0.45 3.40 -3 3.40 -1.30 0 -3.05 -0.25 -3.95 -0.55 -1.35 -0.45 -1.55 -0.80 -1.55 -2.25 0 -0.95 0.35 -2.45 0.80 -3.30 0.55 -1.05 0.75 -2.30 0.55 -3.85 -0.30 -2.70 -1.45 -3.80 -2.95 -2.90 -0.90 0.55 -0.95 0.95 -0.70 3.80 0.15 1.80 0.50 3.45 0.80 3.75 0.25 0.25 0.50 1.35 0.50 2.40 0 2.20 -0.75 2.55 -4.80 2.30 -2.35 -0.15 -2.45 -0.20 -2.60 -1.75 -0.10 -0.90 0.05 -2 0.30 -2.50 0.30 -0.50 0.40 -2.45 0.25 -4.30 -0.25 -3 -0.45 -3.50 -1.45 -3.90 -1.05 -0.35 -1.20 -0.75 -1.20 -3.20 0 -2.50 0.10 -2.75 1.25 -3.05 0.70 -0.15 1.90 -0.15 2.65 0 0.75 0.20 1.70 0.30 2.10 0.25 0.40 -0.05 2.50 -0.10 4.70 -0.15 3.90 -0.05 3.95 -0.05 5.35 1.70 1 1.15 1.45 2.30 1.45 3.50 l0.05 1.75 0.65 -1.80 c0.95 -2.65 2.70 -4.90 4.10 -5.25 0.65 -0.15 2.95 -0.20 5.10 0 2.10 0.15 4.10 0.30 4.35 0.30 0.30 0 1.65 -0.10 3.05 -0.30 3.40 -0.40 4.70 0.30 4.70 2.55 0 3.30 1.05 4.30 1.95 1.75 0.40 -1.30 0.75 -1.50 2.25 -1.50 1.65 0 1.80 -0.10 1.80 -1.55 0 -2.80 0.70 -3.45 3.90 -3.45 1.65 0 3.30 0.30 3.85 0.70 2.15 1.55 1.30 10.55 -1.60 16.95 -1.30 2.75 -1.40 2.85 -3.20 2.85 -1.55 0 -2.10 -0.30 -3 -1.55 l-1.10 -1.55 -0.65 1.55 c-0.55 1.30 -0.95 1.55 -2.30 1.55 -1.40 0 -1.95 -0.35 -3.25 -2.05 -1.45 -1.85 -1.60 -1.95 -1.90 -0.95 -0.20 0.60 -1.25 1.70 -2.35 2.55 -1.70 1.20 -2.55 1.45 -4.95 1.45 -2.60 0 -2.90 0.10 -3.05 1.15 -0.15 0.95 -0.50 1.10 -2.70 1.25 -1.80 0.10 -2.70 -0.05 -3.20 -0.65z m3.40 -1.85 c-0.30 -0.90 -1.40 -1.05 -1.40 -0.20 0 0.45 0.35 0.80 0.80 0.80 0.45 0 0.70 -0.25 0.60 -0.60z m8.65 -3.20 c1.05 -0.65 1.95 -1.55 1.95 -1.95 0 -1 -0.50 -0.95 -1.80 0.30 -1.65 1.55 -4.65 1.80 -6.20 0.55 -1.15 -0.95 -1.20 -1.05 -0.40 -1.95 0.45 -0.50 1.15 -1.70 1.65 -2.65 1.55 -3.35 2.70 -5.10 3.70 -5.85 0.60 -0.40 1.05 -0.90 1.05 -1.10 0 -0.20 -1.30 -0.75 -2.90 -1.20 -4.10 -1.15 -5.95 -0.55 -7.70 2.40 -2.50 4.15 -1.30 8.75 3 11.40 3.40 2.15 4.30 2.15 7.65 0.05z m9.95 -2.40 c0 -0.65 0.45 -1.70 1 -2.35 l1 -1.20 0.90 1.15 c0.45 0.65 1.35 1.75 1.95 2.50 l1.10 1.35 1.35 -1.30 c0.95 -1 1.35 -2 1.55 -3.75 l0.20 -2.45 -1.30 2.10 c-0.75 1.20 -1.55 2.05 -1.75 1.90 -0.25 -0.15 -1.20 -1.60 -2.10 -3.25 -0.90 -1.65 -1.75 -3 -1.90 -3 -0.30 0 -2.50 4.80 -2.50 5.50 0 1.05 -1 0.45 -1.80 -1.10 -0.45 -0.90 -1.20 -2.10 -1.70 -2.65 -0.50 -0.55 -1 -1.90 -1.10 -3 -0.10 -1.65 -0.35 -2.05 -1.25 -2.15 -0.65 -0.10 -1.15 0 -1.15 0.20 0 0.25 0.85 2.10 1.95 4.20 1.05 2.05 2.10 4.45 2.25 5.25 0.70 2.85 3.30 4.50 3.30 2.05z m-26.55 -0.95 c0.25 -0.60 0.30 -2.70 0.10 -4.55 -0.30 -3 -0.55 -3.60 -1.95 -4.85 -1.85 -1.65 -4.65 -1.95 -6.30 -0.70 -1.15 0.85 -3.10 1 -3.55 0.25 -0.45 -0.70 -1.75 -0.65 -1.75 0.10 0 0.30 0.75 1.20 1.60 1.95 1.30 1.05 1.75 1.20 2.15 0.65 0.25 -0.35 1.30 -1 2.25 -1.40 1.55 -0.60 2 -0.60 3.60 0.05 1.55 0.60 2 1.10 2.45 2.85 0.30 1.10 0.45 3.10 0.30 4.45 -0.30 2.50 0.35 3.20 1.10 1.20z m18.50 -1.35 l2 0 -1.35 -2.70 c-1.25 -2.45 -1.40 -2.60 -2.20 -1.90 -0.50 0.40 -0.90 0.95 -0.90 1.25 0 0.25 -0.45 1.05 -1 1.85 -0.55 0.75 -1.20 2 -1.50 2.75 l-0.55 1.40 1.75 -1.35 c1.20 -0.90 2.35 -1.30 3.75 -1.30z m14.85 -6.80 c-0.15 -0.40 -0.75 -0.70 -1.30 -0.70 -1 0 -1 0.05 -0.20 1.60 0.70 1.40 0.85 1.45 1.30 0.70 0.25 -0.45 0.35 -1.20 0.20 -1.60z m3.20 -1.55 c0 -2.40 -0.10 -2.65 -1.25 -2.95 -2.65 -0.65 -3.75 0.85 -1.25 1.75 1.40 0.45 1.50 0.70 1.50 2.90 0 1.75 0.15 2.20 0.50 1.65 0.25 -0.40 0.50 -1.95 0.50 -3.35z"/>
  <path d="M241.05 19.05 c-0.30 -0.50 -0.65 -2.20 -0.85 -3.70 -0.30 -2.55 -0.20 -2.90 0.95 -4.05 1.70 -1.70 5.90 -1.70 6.55 0 0.30 0.70 -4.95 8.70 -5.70 8.70 -0.25 0 -0.70 -0.45 -0.95 -0.95z m3.45 -6.75 c0 -0.25 -0.45 -0.05 -1 0.45 -0.55 0.50 -1 1.25 -1 1.70 0 0.60 0.30 0.45 1 -0.45 0.55 -0.70 1 -1.45 1 -1.70z"/>
  <path d="M80.90 27.85 c-1.75 -0.50 -1.90 -0.70 -1.90 -2.25 0 -1 0.35 -2.20 0.80 -2.70 0.50 -0.50 0.95 -2 1.10 -3.35 0.15 -2 0.05 -2.60 -0.85 -3.50 -0.55 -0.55 -1.40 -1.05 -1.85 -1.05 -0.65 0 -0.75 0.85 -0.60 6.40 l0.15 6.35 -3.25 0 -3.25 0 -0.05 -4.35 c-0.10 -5.30 -0.50 -7.60 -1.45 -8.40 -0.50 -0.40 -0.75 -1.55 -0.75 -3.10 l0 -2.45 2.90 0 c1.55 0 4.60 -0.15 6.75 -0.30 6.35 -0.40 7.90 1.40 8.20 9.35 0.10 2.60 0.25 5.90 0.30 7.25 l0.10 2.50 -2.25 0.05 c-1.25 0.05 -3.10 -0.15 -4.10 -0.45z m-5.35 -7.55 c-0.10 -4.55 0 -5.50 0.75 -6.35 1.05 -1.15 2.75 -1.20 4.70 -0.20 1.80 0.95 2.25 2.90 1.75 8 -0.40 4.25 0.20 4.90 1.25 1.40 1.05 -3.60 0.90 -7.65 -0.45 -9.85 -1.80 -2.90 -6.05 -3.50 -8 -1.10 -0.90 1.05 -1.70 1 -2.80 -0.20 -0.50 -0.55 -1.10 -1 -1.35 -1 -0.70 0 -0.45 1.60 0.40 2.60 0.60 0.60 1 2.50 1.30 6.25 0.30 3 0.75 5.55 1.05 5.75 1.35 0.85 1.60 -0.05 1.40 -5.30z"/>
  <path d="M92.50 27.70 c-0.40 -0.40 -1.40 -1.05 -2.25 -1.40 -1.95 -0.85 -2.75 -3.40 -2.75 -8.75 0 -4.50 0.50 -5.65 3.10 -7.60 2.10 -1.50 2.30 -1.55 6.35 -1.35 3.85 0.20 4.30 0.35 5.40 1.60 1.55 1.85 1.65 6.80 0.15 8.30 -1 1 -1 1 0.50 1 l1.50 0 -0.30 -4.85 c-0.20 -3.25 -0.55 -5.10 -1 -5.45 -0.40 -0.30 -0.70 -1.45 -0.70 -2.60 0 -2.90 2.20 -5.20 4.85 -5 l1.90 0.15 0.15 2.90 c0.10 2.25 0 2.85 -0.60 2.85 -0.45 0 -0.90 -0.65 -1.10 -1.75 -0.35 -2.10 -1.25 -2.25 -2.45 -0.45 -0.80 1.25 -0.80 1.40 -0.05 1.80 0.55 0.30 0.80 1.15 0.80 2.80 0 1.30 0.25 5.35 0.60 9 0.50 5.95 0.65 6.60 1.50 6.60 0.90 0 0.95 -0.30 0.60 -5.65 -0.30 -5.60 -0.30 -5.65 0.85 -6.45 2.45 -1.60 3.30 -1.55 5.20 0.20 2.25 2.05 2.75 4.60 1.55 8.05 -0.90 2.65 -1 3.35 -0.40 3.35 0.20 0 1 -1.35 1.80 -3 1.85 -3.85 1.65 -6.55 -0.70 -9.45 -1.50 -1.95 -1.75 -2.05 -4.25 -2.05 -1.50 0 -2.85 0.25 -3 0.50 -0.70 1.10 -1.75 0.50 -1.75 -1 l0 -1.50 4.35 0 4.35 0 2.10 2.25 c1.75 1.90 2.10 2.10 2.30 1.35 0.15 -0.55 1.15 -1.60 2.20 -2.40 1.80 -1.35 2.15 -1.45 6.35 -1.35 3.80 0.05 4.70 0.25 6.30 1.30 l1.85 1.25 0.50 -1.10 c0.40 -0.95 1 -1.10 6.85 -1.50 7.80 -0.55 8.35 -0.25 8.35 4.05 0 2.40 -0.15 2.70 -1.30 3.15 -1.75 0.70 -4.35 0.60 -5.15 -0.10 -0.55 -0.55 -0.60 -0.05 -0.25 2.60 0.25 1.80 0.45 4.50 0.45 6 l0 2.75 -3.05 0.15 -3.05 0.15 -0.45 -5.65 -0.40 -5.65 -0.30 4 c-0.35 4.45 -0.95 6 -2.60 6.55 -0.65 0.15 -1.55 0.70 -2.10 1.15 -1.30 1.15 -7.90 1.05 -9.20 -0.15 -0.50 -0.45 -1.20 -0.80 -1.55 -0.80 -0.30 0 -1.15 -0.55 -1.80 -1.25 l-1.25 -1.20 0 1.95 c0 1.70 -0.20 2.05 -1.25 2.30 -0.70 0.15 -2 0.15 -2.90 0 -4.60 -0.95 -4.35 -0.80 -4.35 -2.75 0 -1 0.45 -3 0.95 -4.45 1.05 -2.90 0.90 -4.20 -0.75 -5.70 -0.80 -0.70 -1.10 -0.70 -1.85 -0.15 -0.85 0.60 -0.90 1 -0.30 5.65 0.30 2.75 0.45 5.35 0.30 5.80 -0.25 0.60 -1.05 0.80 -3.30 0.80 -2.55 0 -3 -0.15 -3.15 -0.95 -0.15 -0.90 -0.30 -0.90 -2.30 0.50 -1.90 1.30 -2.55 1.45 -5.80 1.45 -2.70 0 -3.85 -0.20 -4.30 -0.80z m8.05 -2.30 c1.45 -0.95 2.45 -1.95 2.45 -2.50 0 -1.25 -0.40 -1.15 -2 0.60 -1.15 1.25 -1.80 1.50 -3.60 1.50 -1.80 0 -2.50 -0.30 -3.80 -1.55 -1.50 -1.45 -2.60 -4.05 -2.60 -6.10 0 -2.30 3.10 -5.85 5.10 -5.85 1.40 0 3.90 1.40 3.90 2.20 0 0.35 -0.35 0.95 -0.75 1.30 -0.65 0.50 -0.95 0.50 -1.65 -0.20 -1.25 -1.10 -1.60 -1 -1.60 0.40 0 1.60 1.10 2.40 3.10 2.20 2.90 -0.25 3.45 -3.10 1.10 -5.65 -0.95 -1.05 -1.60 -1.25 -3.90 -1.25 -2.50 0 -2.95 0.15 -4.80 1.90 -1.90 1.85 -2 2.05 -2 5.05 0 3.85 1 6.40 2.80 7.05 0.70 0.30 1.90 0.95 2.60 1.50 1.70 1.35 2.80 1.25 5.65 -0.60z m18.95 -0.20 c0 -0.40 -0.45 -0.70 -1 -0.70 -1.10 0 -1.40 1.30 -0.35 1.65 0.80 0.30 1.35 -0.05 1.35 -0.95z m13.55 0.80 c1.75 -0.95 1 -1.50 -2 -1.50 l-2.95 0 -2.25 -2.75 c-1.35 -1.65 -2.40 -3.50 -2.60 -4.60 -0.30 -1.75 -0.20 -2 1.55 -3.50 1.40 -1.25 2.35 -1.65 3.80 -1.65 3.90 0 8.40 3.70 8.40 6.95 0 0.85 -0.55 2.35 -1.25 3.35 -1.40 2.05 -1.35 2.45 0.20 1.95 2.05 -0.65 2.65 -6.10 1.10 -9.60 -1.90 -4.15 -7.90 -6 -11.60 -3.50 -2.45 1.65 -3.05 3.05 -2.75 6.70 0.35 4.20 1.10 5.45 4.35 7.15 2.95 1.55 4.50 1.80 6 1z m12.05 -2.80 c-0.10 -0.90 -0.35 -3.25 -0.55 -5.25 -0.40 -3.60 -0.35 -3.70 1.05 -5.10 1.75 -1.75 3.70 -1.70 3.50 0.05 -0.10 1 0.05 1.10 1 0.85 1.85 -0.55 2.10 -1.10 1.20 -2.45 -0.65 -1.05 -1.20 -1.30 -3 -1.30 -1.35 0 -2.40 0.30 -2.80 0.75 -0.70 0.85 -2.30 1 -2.75 0.25 -0.40 -0.70 -2.10 -0.65 -2.55 0.10 -0.20 0.30 0.20 0.95 0.95 1.50 1.05 0.75 1.35 1.40 1.35 2.85 0 1.05 0.15 3.65 0.35 5.75 0.25 3.55 0.40 3.85 1.35 3.70 0.85 -0.10 1 -0.45 0.90 -1.70z m-45.55 -1.80 l1.50 -1.65 -3.05 -0.25 c-3.15 -0.25 -3.95 -0.85 -4 -2.75 -0.05 -0.90 -0.10 -0.90 -0.55 -0.15 -0.65 1.15 0.50 3.90 2.30 5.30 1.80 1.45 2.05 1.40 3.80 -0.50z m34.15 -0.65 l1.35 -1.75 -1.40 -1.70 c-0.75 -0.95 -2.20 -2.10 -3.20 -2.60 -1.80 -0.80 -1.95 -0.80 -3.40 0.25 -0.85 0.65 -1.55 1.40 -1.55 1.80 0 0.35 1.05 1.80 2.30 3.20 2.80 3.10 4.05 3.25 5.90 0.80z"/>
  <path d="M282.25 28 c-0.20 -0.30 -0.30 -1.60 -0.25 -2.90 0.10 -1.55 -0.25 -3.20 -1 -4.80 -0.95 -2.05 -1.10 -3 -0.85 -5.65 0.40 -4 1.15 -5.55 3.35 -7.05 1.60 -1.10 2.05 -1.15 5.75 -0.85 4.95 0.40 4.25 0.40 17.50 0 l11 -0.30 2.35 1.80 c1.25 1 2.55 2.40 2.80 3.15 0.85 2.15 2.10 9 2.10 11.40 l0 2.20 -2.20 0 c-1.25 0 -2.40 0.25 -2.55 0.50 -0.15 0.30 -1.85 0.50 -3.70 0.50 -2.95 0 -3.60 -0.20 -5.40 -1.50 -1.75 -1.30 -2.15 -1.90 -2.45 -3.80 -0.15 -1.25 -0.20 -3.35 -0.05 -4.60 l0.25 -2.35 -2.45 0.15 c-1.35 0.10 -2.75 -0.05 -3.10 -0.35 -0.75 -0.60 -0.65 1.40 0.25 6.05 0.30 1.55 0.40 3.40 0.20 4.10 -0.30 1.20 -0.55 1.30 -3.10 1.30 -2 0 -2.80 -0.20 -3 -0.75 -0.25 -0.65 -0.65 -0.55 -2.15 0.60 -1.55 1.20 -2.25 1.40 -4.90 1.35 -3 -0.05 -3.15 0 -3.15 1.15 0 1.05 -0.20 1.15 -2.45 1.15 -1.40 0 -2.65 -0.25 -2.80 -0.50z m10.15 -4.10 c1.05 -1.05 0.65 -1.35 -2 -1.50 -2.30 -0.15 -2.65 -0.30 -2.80 -1.30 -0.10 -0.60 0.40 -2.10 1.10 -3.35 1.50 -2.55 1.70 -3.70 0.50 -2.70 -0.45 0.35 -1.10 1.50 -1.55 2.50 -0.40 1.05 -1.05 2 -1.50 2.15 -1.10 0.45 -2.55 -1.60 -2.95 -4.20 -0.30 -1.95 -0.40 -2.10 -0.75 -1.05 -0.25 0.60 -0.30 1.75 -0.10 2.45 0.35 1.60 3 5.60 3.65 5.60 0.30 0 0.95 0.45 1.50 1 1.10 1.10 3.95 1.35 4.90 0.40z m26 -0.75 c0.10 -0.45 -0.45 -0.65 -1.75 -0.65 -1.80 0 -3.95 -1 -4.75 -2.20 -0.45 -0.70 -1.10 0 -0.65 0.70 1.35 2.15 6.60 3.75 7.15 2.15z m-17.25 -3.75 c-0.10 -1.75 -0.45 -3.80 -0.70 -4.60 -0.65 -2.10 -0.55 -2.70 0.55 -3.80 1.35 -1.35 4 -1.35 4.35 0 0.35 1.30 1.50 1.30 1.90 -0.05 0.25 -0.65 0.05 -1.35 -0.40 -1.80 -0.95 -1 -4.05 -0.95 -5.60 0.05 -0.75 0.50 -1.70 0.70 -2.70 0.50 -1.80 -0.40 -2.15 0.70 -0.60 1.65 0.80 0.50 1 1.45 1.30 5.50 0.40 5.35 0.50 5.65 1.50 5.65 0.50 0 0.60 -0.70 0.40 -3.10z m21.35 1.90 c0 -1.15 -0.65 -2.80 -1.05 -2.80 -0.25 0 -0.45 0.40 -0.45 0.95 0 0.50 -0.35 1.20 -0.75 1.55 -1.15 0.95 -0.90 1.35 0.75 1.10 0.85 -0.10 1.50 -0.45 1.50 -0.80z m-30.10 -1.80 c0.45 -0.75 1.15 -1 2.60 -1 l2 0 -0.30 -2.35 c-0.20 -1.35 -0.50 -2.60 -0.70 -2.80 -0.95 -1.10 -3.10 1.60 -5.40 6.80 -0.40 0.85 1.20 0.25 1.80 -0.65z m25.55 -0.20 c0.60 -0.70 0.25 -2.30 -0.45 -2.30 -0.25 0 -0.75 -0.15 -1.15 -0.30 -0.40 -0.15 -1.10 0.10 -1.55 0.60 -0.80 0.75 -0.80 0.90 0 1.75 1 1.10 2.35 1.25 3.15 0.25z m-1.55 -4.65 c1.75 0.20 3.50 0.55 3.85 0.85 0.90 0.75 1.35 -0.10 0.95 -1.75 -0.35 -1.40 -4.65 -5.25 -5.90 -5.25 -1.30 0 -0.90 0.85 0.65 1.40 1.65 0.60 3.30 2.75 2.80 3.60 -0.20 0.30 -0.95 0.45 -1.65 0.25 -2.70 -0.55 -6.05 1.20 -6.10 3.25 0 0.40 0.50 0 1.10 -0.95 l1.10 -1.70 3.20 0.30z m-29.20 -1.65 c0.30 -0.45 0.05 -0.25 -0.55 0.40 -0.65 0.65 -1.15 1.40 -1.15 1.75 0 0.35 0.30 0.15 0.60 -0.40 0.30 -0.55 0.80 -1.35 1.10 -1.75z m6.10 -2.95 c-0.40 -0.65 -3.55 -1.55 -5.40 -1.55 -1.30 0 -4.80 2.45 -3.55 2.50 0.30 0 0.75 -0.20 0.90 -0.50 0.40 -0.60 4.25 -0.65 5.20 -0.05 0.45 0.30 0.60 0.95 0.45 1.80 l-0.30 1.35 1.50 -1.50 c0.85 -0.80 1.40 -1.75 1.20 -2.05z m19.30 0.15 c-0.65 -1.40 -1.75 -1.40 -2.05 0.05 -0.20 1.15 1.40 2.50 2.15 1.75 0.30 -0.30 0.25 -0.95 -0.10 -1.80z"/>
  <path d="M180 26.55 c-1.70 -0.45 -1.90 -2.75 -0.55 -6.35 1 -2.55 1 -2.85 0.30 -4.25 -0.95 -1.80 -2.10 -2.35 -3 -1.40 -0.45 0.55 -0.50 1.45 -0.20 3.70 0.25 1.65 0.55 4.20 0.75 5.65 l0.35 2.60 -3.50 0 -3.50 0 0.05 -5.55 c0 -5.50 0 -5.60 -1.35 -6.65 -1.15 -0.95 -1.35 -1.45 -1.35 -3.70 l0 -2.65 3.15 0.05 c1.70 0 4.25 -0.15 5.60 -0.30 3.10 -0.40 6.20 0.40 7.65 1.95 1.60 1.70 2.45 6.15 1.80 9.35 -0.30 1.45 -0.35 2.65 -0.10 2.90 0.25 0.25 0.40 1.45 0.30 2.65 l-0.15 2.20 -2.50 0.10 c-1.35 0.05 -3.05 -0.10 -3.75 -0.30z m-5.35 -3.60 c0 -0.65 -0.20 -3.15 -0.40 -5.50 l-0.35 -4.30 1.75 -0.80 c3 -1.45 4.75 -0.90 6.15 1.75 0.65 1.25 0.75 2.30 0.50 4.80 -0.30 2.85 -0.25 3.20 0.40 2.65 0.40 -0.35 0.95 -1.70 1.25 -3 1.40 -6.50 -3.45 -10.90 -8.80 -8 -2.10 1.15 -2.25 1.15 -2.85 0.35 -0.80 -1.10 -2.30 -1.20 -2.30 -0.20 0 0.40 0.60 1.15 1.30 1.65 1.25 0.90 1.35 1.30 1.55 5.95 0.10 2.70 0.30 5.25 0.45 5.60 0.35 1.10 1.45 0.35 1.35 -0.95z"/>
  <path d="M198.40 26.05 c-0.70 -0.60 -1.55 -1.05 -1.85 -1.05 -1.05 0 -1.60 -2.15 -1.50 -6.05 0.05 -2.20 -0.05 -4.10 -0.25 -4.30 -0.15 -0.15 -0.30 -1.50 -0.30 -2.95 0 -3.60 0.90 -4.20 6.35 -4.20 3.85 0 4.25 0.10 5.80 1.45 2.05 1.85 4.85 7.15 4.85 9.25 0 0.90 0.25 1.85 0.55 2.15 0.25 0.25 0.45 1.60 0.35 2.95 l-0.15 2.45 -2.75 0.40 c-1.50 0.25 -4.35 0.55 -6.25 0.65 -3.05 0.25 -3.70 0.15 -4.85 -0.75z m5.95 -1.10 l1.40 -0.60 -1.25 -0.35 c-1.85 -0.60 -4 -0.55 -4 0 0 0.45 0.85 0.95 2.35 1.45 0.05 0.05 0.70 -0.20 1.50 -0.50z m5.90 -2.05 c-0.15 -0.65 -0.55 -2.25 -0.85 -3.65 -0.55 -2.95 -3.35 -7.80 -5.15 -8.95 -0.65 -0.45 -1.85 -0.80 -2.60 -0.80 -1.35 0 -1.35 0 0.60 1.30 4.30 2.85 4.35 4.20 0.25 4.20 -2.55 0 -3.25 0.20 -4.25 1.25 -1.90 1.85 -1.50 6.75 0.55 6.75 0.60 0 0.70 -0.50 0.40 -2.95 -0.30 -2.70 -0.20 -3 0.85 -3.75 0.65 -0.45 2.10 -0.80 3.25 -0.80 1.75 0 2.35 0.25 3.45 1.60 1.35 1.60 1.45 3.05 0.50 5.50 -0.35 0.80 0.40 1.20 2.45 1.35 0.75 0.05 0.85 -0.20 0.55 -1.05z m-5.05 -2.60 c0.45 -0.70 0.30 -1.05 -0.65 -1.85 -1.40 -1.15 -1.60 -1.15 -2.80 -0.25 -0.90 0.65 -0.85 0.70 0.40 2 1.50 1.50 2.20 1.50 3.05 0.10z m-5.45 -7.80 c-0.20 -0.30 -0.75 -0.40 -1.30 -0.25 -0.85 0.30 -0.90 0.15 -0.45 -0.95 0.55 -1.45 -0.05 -1.70 -1.05 -0.50 -0.60 0.70 -0.45 1 0.75 2.05 1.40 1.20 2.85 0.95 2.05 -0.35z"/>
  <path d="M161.65 20.75 c0 -4.80 -0.15 -5.90 -0.90 -6.75 -0.65 -0.70 -0.80 -1.40 -0.55 -2.85 0.20 -1.05 0.40 -3.25 0.45 -4.90 l0.10 -3 3 0 3 0 0.85 8.75 c0.45 4.80 1 10.05 1.20 11.65 l0.35 2.85 -3.75 0 -3.75 0 0 -5.75z m4.85 3.15 c0 -0.35 -0.35 -3.35 -0.75 -6.65 -0.40 -3.30 -0.75 -6.30 -0.75 -6.60 0 -0.90 -1.25 -0.80 -2 0.10 -0.45 0.50 -0.45 0.95 -0.10 1.40 0.40 0.50 1.75 10.05 1.55 11.25 -0.15 0.85 0.10 1.10 1.05 1.10 0.55 0 1 -0.30 1 -0.60z m-1.60 -17.85 c-0.10 -0.45 -0.65 -0.85 -1.30 -0.95 -1.25 -0.20 -1.35 0.05 -0.60 1.40 0.60 1.15 2.15 0.75 1.90 -0.45z"/>
  <path d="M59.60 25.15 c-2.55 -0.50 -3.35 -5.95 -1.05 -7.15 0.55 -0.30 2 -0.50 3.25 -0.40 2.05 0.15 2.45 0.35 3.35 1.95 0.90 1.55 0.95 2 0.40 3.30 -0.90 2.20 -2.75 2.90 -5.95 2.30z m3.40 -2.90 c0.50 -0.65 0.45 -0.95 -0.30 -1.80 -1.65 -1.80 -3.90 -0.45 -3 1.85 0.35 0.95 2.50 0.90 3.30 -0.05z"/>
  <path d="M60.20 16.65 c-2.50 -0.20 -2.50 -0.20 -2.30 -1.65 0.20 -1.55 -0.30 -1.90 -1.30 -0.90 -0.30 0.30 -0.75 0.40 -0.95 0.20 -0.50 -0.45 1.80 -2.25 2.90 -2.30 1.10 0 5.45 3.40 5.45 4.25 0 0.40 -0.30 0.70 -0.60 0.65 -0.35 -0.05 -1.80 -0.15 -3.20 -0.25z"/>
 </g>
 <g fill="#51cfed">
  <path d="M11.90 28.70 c-1.15 -0.95 -2.45 -2.15 -2.75 -2.60 -0.80 -1 -0.85 -5.80 -0.10 -7.20 0.40 -0.70 0.40 -1.15 0 -1.55 -0.30 -0.30 -0.55 -1.70 -0.55 -3.10 0 -2.25 0.20 -2.70 1.50 -3.65 1.20 -0.90 2.15 -1.10 5.20 -1.10 4.55 0 6 0.50 8.10 2.90 l1.65 1.85 0.05 -1.80 c0 -3 0.85 -3.35 8.40 -3.35 l6.60 0 2 1.55 c2.35 1.90 2.40 2.30 2.60 11.60 l0.15 7 -4.40 0 c-3.35 0 -4.50 -0.20 -4.85 -0.75 -0.35 -0.55 -0.50 -0.55 -0.50 -0.10 0 0.50 -1 0.65 -3.85 0.65 -5.45 0 -8.15 0.25 -9.80 0.90 -0.80 0.30 -2.75 0.55 -4.35 0.55 -2.60 0 -3.15 -0.20 -5.10 -1.80z m8.05 -1.05 c0.80 -0.55 2.05 -0.80 3.70 -0.70 2.20 0.10 2.45 0 2.10 -0.80 -0.20 -0.50 -0.70 -2.35 -1.05 -4.15 -0.85 -4.30 -1.80 -6.40 -3.95 -8.50 -1.55 -1.50 -2.10 -1.70 -4.90 -1.90 -2.80 -0.15 -3.25 -0.05 -4.50 1.15 -1.10 1.10 -1.25 1.45 -0.80 2.30 0.25 0.55 0.85 1.15 1.25 1.30 1.05 0.40 0.85 2.35 -0.35 3.45 -1.40 1.25 -1.05 4.60 0.60 5.70 0.65 0.40 1.70 1.25 2.40 1.90 1.45 1.30 3.85 1.45 5.50 0.25z m22.95 -1.05 c0.10 -0.65 -0.20 -1.25 -0.85 -1.60 -1.25 -0.65 -1.35 -1.65 -0.30 -2.50 0.55 -0.45 0.75 -1.60 0.75 -3.95 0 -3.70 0 -3.65 -2.65 -5.95 -2.10 -1.80 -3.85 -2.05 -6.70 -0.85 -1.65 0.70 -1.90 0.70 -2.70 -0.05 -1.05 -0.95 -2.40 -0.80 -3.15 0.40 -0.40 0.65 -0.30 1.10 0.60 2 0.95 1.05 1.10 1.90 1.30 6.90 l0.20 5.75 1.80 0.15 1.80 0.15 -0.25 -3.65 c-0.15 -2 -0.40 -4.50 -0.55 -5.55 -0.15 -1.50 0 -2.10 1 -3.10 1.60 -1.60 2.90 -1.60 4.80 0.15 1.35 1.15 1.55 1.70 1.60 4.10 0.05 1.95 -0.25 3.40 -1 4.85 -1.40 2.75 -1.40 3.15 0.30 3.15 0.75 0 1.70 0.25 2.10 0.50 1.05 0.65 1.70 0.35 1.90 -0.90z m-6.20 -4.30 c1.10 -2.30 1 -4.45 -0.15 -5.50 -1.50 -1.35 -2.05 -0.55 -2.05 2.95 0 5.05 0.65 5.80 2.20 2.55z m-9.50 -2.75 c-0.20 -2.05 -0.65 -3.30 -1.30 -3.90 -1 -0.90 -1 -0.90 -0.25 0.85 0.45 0.95 0.95 2.85 1.10 4.15 0.20 1.35 0.45 2.35 0.55 2.20 0.15 -0.15 0.10 -1.60 -0.10 -3.30z"/>
  <path d="M14.85 24.05 c-1.80 -3.05 -0.35 -5.55 3.10 -5.55 2.55 0 4.30 1.95 3.85 4.20 -0.45 2.25 -1.20 2.80 -3.75 2.80 -2.05 0 -2.45 -0.20 -3.20 -1.45z m4.40 -1.75 c0 -1.25 -1.50 -2.25 -2.30 -1.45 -0.40 0.40 -0.40 0.85 0.05 1.65 0.70 1.25 2.25 1.15 2.25 -0.20z"/>
  <path d="M16.90 16.65 c-0.95 -0.15 -1.50 -0.65 -1.85 -1.75 -0.70 -1.95 -0.70 -1.90 0.35 -1.90 1.15 0 5.20 2.95 4.80 3.55 -0.25 0.45 -0.85 0.45 -3.30 0.10z"/>
  <path d="M56.15 28.50 c-0.50 -0.55 -1.15 -1 -1.50 -1 -1.45 0 -2.15 -2.20 -2.15 -6.60 0 -2.40 -0.20 -4.50 -0.50 -4.65 -0.75 -0.45 -0.60 -3.60 0.25 -5.25 0.95 -1.85 3.55 -2.70 7.25 -2.35 3.85 0.35 6.55 1.80 7.75 4.20 1.45 2.75 2.75 4.45 2.75 3.55 0 -0.45 -0.35 -1.05 -0.75 -1.40 -0.60 -0.50 -0.75 -1.40 -0.65 -3.20 l0.15 -2.55 6.60 -0.45 c3.60 -0.25 7.15 -0.30 7.90 -0.10 0.80 0.20 1.85 1.20 2.70 2.55 l1.40 2.20 0.55 -1.20 c0.35 -0.70 1.65 -1.95 2.95 -2.75 2.30 -1.50 2.50 -1.50 6.75 -1.20 l4.40 0.35 0 -2.05 c0 -1.60 0.35 -2.40 1.70 -3.80 1.35 -1.45 2.05 -1.80 3.65 -1.80 1.05 0 2.20 0.25 2.55 0.60 0.35 0.35 0.60 1.90 0.60 3.50 l0 2.90 3.25 0 c3 0 3.40 0.15 5.10 1.70 l1.90 1.70 1.95 -1.70 c1.95 -1.70 2 -1.70 7 -1.70 4.15 0 5.35 0.20 6.70 1 0.85 0.55 1.60 0.75 1.60 0.50 0 -0.95 1.95 -1.40 7.80 -1.75 5.80 -0.35 6.15 -0.30 7.15 0.70 0.80 0.80 1.05 1.65 1.05 3.85 0 2.65 -0.05 2.75 -1.75 3.50 -0.95 0.35 -2.50 0.70 -3.45 0.70 -1.75 0 -1.75 0.05 -1.50 1.65 0.15 0.85 0.50 2.40 0.75 3.35 0.60 2.45 0.55 4.70 -0.15 5.40 -0.35 0.35 -2 0.60 -4 0.60 l-3.40 0 -0.05 -2.35 c-0.05 -1.85 -0.15 -2.10 -0.40 -1.15 -0.20 0.75 -1.35 1.95 -2.80 2.90 -2.30 1.50 -2.80 1.60 -6.80 1.60 -3.20 0 -4.50 -0.20 -4.95 -0.75 -0.35 -0.40 -1.25 -1.05 -2 -1.45 -1.40 -0.65 -1.45 -0.65 -1.60 0.65 -0.15 1.30 -0.15 1.30 -4.35 1.25 -3.30 -0.05 -4.35 -0.25 -4.80 -0.90 -0.55 -0.75 -0.65 -0.75 -0.95 -0.05 -0.40 1.10 -6.70 1.10 -7.10 0 -0.25 -0.65 -0.65 -0.60 -2.45 0.50 -1.75 1 -2.85 1.25 -5.70 1.25 -3.05 0 -3.65 -0.15 -4.85 -1.25 -0.75 -0.70 -1.65 -1.25 -2 -1.25 -0.35 0 -0.90 -0.40 -1.15 -0.85 -0.45 -0.80 -0.50 -0.75 -0.55 0.40 0 0.70 -0.30 1.65 -0.65 2.20 -0.60 0.80 -1.10 0.85 -4.15 0.50 -4.70 -0.50 -17.90 -0.20 -18.55 0.45 -0.15 0.15 -1.95 0.30 -4 0.30 -3.05 0 -3.80 -0.15 -4.50 -1z m7.30 -1.70 c1.40 -1.05 1.80 -1.10 3.05 -0.65 0.80 0.30 1.60 0.40 1.80 0.20 0.60 -0.60 -0.35 -7.85 -1.15 -8.65 -0.45 -0.40 -1.25 -1.70 -1.85 -2.85 -1.50 -3 -4.95 -4.70 -8.20 -4.05 -1.75 0.35 -2.50 0.80 -3.10 1.80 -0.70 1.30 -0.65 1.45 0.75 2.90 1.35 1.40 1.40 1.55 0.55 2.15 -0.70 0.50 -0.80 1.25 -0.70 3.85 0.15 2.75 0.30 3.30 1.25 3.80 0.65 0.30 1.55 0.90 2 1.30 0.80 0.70 2 1.20 3.45 1.35 0.25 0 1.25 -0.50 2.15 -1.15z m22.40 -0.60 c0.10 -0.35 -0.15 -0.95 -0.60 -1.40 -0.65 -0.65 -0.75 -1.30 -0.45 -2.95 0.85 -5.05 0 -8.90 -2.40 -10.55 -1.60 -1.15 -5 -1 -6.55 0.20 -1.50 1.20 -2.05 1.25 -2.85 0.25 -0.85 -1 -2.50 -0.95 -2.50 0.10 0 0.45 0.35 1.20 0.80 1.70 0.90 1 1.80 7 1.60 10.45 l-0.15 2.25 1.75 0 1.75 0 -0.20 -6.10 -0.15 -6.10 1.30 -0.60 c2.15 -1 4.60 0.45 5.30 3.10 0.65 2.40 -0.05 6.60 -1.35 8.05 -0.95 1.05 -0.95 1.05 1.35 1.75 2.10 0.65 3.10 0.60 3.35 -0.15z m15.35 -0.75 c1.65 -1.10 2.30 -1.85 2.30 -2.70 0 -1.85 -0.70 -1.85 -2.40 0 -1.25 1.45 -1.85 1.75 -3.50 1.75 -3.45 0 -6.10 -3.15 -6.10 -7.20 0 -1.25 0.45 -2.30 1.60 -3.60 1.45 -1.65 1.80 -1.80 3.55 -1.55 2.30 0.30 3.10 0.95 2.65 2.15 -0.30 0.80 -0.40 0.80 -1.30 -0.05 -1.25 -1.10 -2.50 -0.65 -2.50 0.95 0 1.65 1.25 2.80 3.05 2.80 3.15 0 4.50 -3.70 2.35 -6.25 -0.90 -1 -1.75 -1.35 -3.90 -1.55 -2.50 -0.25 -2.95 -0.15 -4.90 1.25 -1.15 0.90 -2.35 2.15 -2.60 2.85 -0.65 1.70 -0.65 4.75 0.05 7.55 0.50 1.85 0.90 2.40 2.20 2.95 0.85 0.35 1.85 1 2.25 1.40 1.10 1.40 4.65 1 7.20 -0.75z m18 1.25 c0.45 -0.15 0.80 -0.85 0.80 -1.50 0 -1.15 -0.45 -1.40 -1.85 -1.25 -1 0.15 -0.75 -1.70 0.35 -2.70 1.90 -1.75 1.15 -6.55 -1.50 -9.30 -1.55 -1.65 -2.15 -1.95 -3.95 -1.95 -1.15 0 -2.60 0.25 -3.15 0.55 -1.45 0.80 -1.90 -0.10 -1.90 -3.90 0 -1.70 -0.25 -3.25 -0.50 -3.40 -0.60 -0.35 -3.50 2.55 -3.50 3.50 0 0.35 0.30 0.75 0.65 0.90 0.50 0.20 0.85 2.80 1.30 9.35 l0.70 9.05 1.55 -0.15 c1.30 -0.15 1.55 -0.35 1.45 -1.40 -0.05 -0.70 -0.25 -3.25 -0.40 -5.75 l-0.35 -4.50 1.50 -0.85 c2.05 -1.20 2.70 -1.15 4.30 0.55 1.90 2 2.20 4.65 0.85 8.40 -1.30 3.65 -1.30 3.65 0.10 3.65 0.60 0 1.45 0.25 1.85 0.50 0.90 0.60 0.75 0.55 1.70 0.20z m14.80 -0.95 c0.40 -0.35 1.30 -0.80 1.90 -1 2.50 -0.75 3.35 -6.25 1.65 -10.10 -1.40 -3 -4.05 -4.60 -7.85 -4.75 -2.65 -0.15 -3.25 0 -4.90 1.25 -2.35 1.80 -2.95 3.40 -2.65 6.90 0.30 3.45 1.45 5.80 3.25 6.55 0.75 0.35 1.70 0.85 2.10 1.20 1.45 1.20 5.05 1.15 6.50 -0.05z m11.65 -2 c-0.05 -0.80 -0.25 -3.45 -0.45 -5.80 -0.35 -4.15 -0.30 -4.35 0.85 -5.10 1.65 -1.20 3.10 -1.10 2.70 0.10 -0.40 1.25 0.35 1.65 1.95 1.05 1.50 -0.55 1.75 -2.20 0.45 -3.60 -1 -1.15 -3.65 -1.20 -5.75 -0.10 -1.25 0.65 -1.80 0.70 -2.50 0.25 -1.20 -0.75 -2.15 -0.70 -2.90 0.20 -0.50 0.60 -0.35 1 0.65 2.25 1.10 1.30 1.30 2.10 1.60 7 l0.40 5.55 1.55 -0.15 c1.40 -0.15 1.55 -0.30 1.45 -1.65z m-65.20 -3.45 c0.60 -1.50 -0.15 -4.05 -1.30 -4.50 -0.45 -0.20 -0.90 -0.20 -1.05 -0.10 -0.10 0.15 -0.05 1.95 0.15 4.05 0.30 3.45 0.40 3.75 1.05 2.85 0.35 -0.55 0.90 -1.60 1.15 -2.30z m33.40 0.30 c0.85 -2.45 0.80 -2.75 -0.40 -4.30 -1.65 -2.10 -2.40 -1.05 -1.85 2.75 0.60 4.60 1.05 4.95 2.25 1.55z m-14.35 0.40 l1.05 -1.50 -2.75 0 c-1.55 0 -2.80 0.15 -2.80 0.35 0 0.60 2.15 2.65 2.80 2.65 0.35 0 1.10 -0.65 1.70 -1.50z"/>
  <path d="M59.15 24.50 c-1.35 -0.55 -2.05 -3.50 -1.20 -5.30 0.45 -1.05 0.85 -1.20 3 -1.20 2.10 0 2.65 0.20 3.50 1.30 1.40 1.80 1.30 3.40 -0.25 4.65 -1.40 1.10 -3.20 1.30 -5.05 0.55z m3.30 -2.20 c0.80 -1 0.15 -2.30 -1.20 -2.30 -1.45 0 -1.95 1.25 -0.95 2.25 0.95 0.95 1.40 0.95 2.15 0.05z"/>
  <path d="M60.25 16.05 c-1.85 -0.30 -2 -0.45 -2.05 -1.90 -0.05 -1.05 0.15 -1.65 0.55 -1.65 0.80 0 4.75 2.90 4.75 3.50 0 0.55 -0.05 0.55 -3.25 0.05z"/>
  <path d="M126.35 21.50 c-3.55 -3.90 -3.45 -6.70 0.30 -8.70 1.70 -0.95 1.80 -0.95 4.15 -0.05 1.30 0.50 3.15 1.70 4.05 2.70 2.10 2.25 2.20 4.40 0.35 6.85 -1.20 1.55 -1.55 1.70 -3.95 1.70 -2.55 0 -2.75 -0.10 -4.90 -2.50z m7.05 -1 l1.10 -1.50 -2.25 -2.25 c-2.55 -2.45 -3.40 -2.70 -5.20 -1.30 -1.35 1.05 -1.25 1.45 1.60 4.50 2.25 2.45 3.30 2.55 4.75 0.55z"/>
  <path d="M238.40 28.95 c-0.50 -0.25 -0.90 -0.90 -0.90 -1.35 0 -0.95 -1.75 -1.10 -11.70 -1.05 -3.55 0 -5.05 -0.20 -5.35 -0.65 -0.60 -0.95 -0.55 -4.30 0.05 -4.65 0.35 -0.20 0.40 -1.45 0.20 -3.40 -0.25 -2.45 -0.55 -3.30 -1.50 -4 -1 -0.80 -1.20 -1.40 -1.20 -3.60 0 -2.15 0.20 -2.80 0.95 -3.20 0.55 -0.30 3.75 -0.45 7.60 -0.35 7.40 0.15 9.95 0.90 9.95 2.90 0 0.90 0.25 0.80 1.70 -0.90 l1.70 -1.95 8.40 -0.05 c4.65 -0.05 8.95 0.15 9.60 0.35 0.85 0.35 1.10 0.85 1.15 2.30 0 1.05 0.15 1.55 0.30 1.15 0.40 -1.05 1.20 -1.50 2.80 -1.50 1.15 0 1.35 -0.20 1.35 -1.45 0 -2.35 1.10 -3.05 4.95 -3.05 2 0 3.75 0.25 4.25 0.65 1.45 1.10 1.65 6.30 0.35 11.25 -0.55 2.25 -1.05 4.50 -1.05 5.05 0 0.50 -0.35 1.20 -0.80 1.55 -0.40 0.40 -1.05 1.40 -1.45 2.35 -0.65 1.50 -0.90 1.65 -2.75 1.65 -1.75 0 -2.15 -0.20 -3 -1.60 l-0.95 -1.55 -0.60 1.30 c-0.50 1.15 -0.90 1.35 -2.65 1.35 -1.75 0 -2.15 -0.20 -2.90 -1.50 -0.90 -1.60 -2.10 -1.95 -2.55 -0.75 -0.50 1.20 -4.15 2.75 -6.60 2.75 -1.70 0 -2.35 0.20 -2.60 0.90 -0.20 0.45 -0.55 1 -0.85 1.20 -0.80 0.55 -4.90 0.45 -5.90 -0.15z m4.35 -1.95 c0.15 -0.25 0 -0.90 -0.35 -1.45 -0.80 -1.30 -0.15 -1.95 1.10 -1.15 1.70 1.05 5.05 0.75 7.10 -0.65 1.05 -0.70 2.10 -1.70 2.40 -2.25 0.85 -1.65 -0.70 -1.80 -2.65 -0.30 -1.70 1.30 -4 1.65 -5.30 0.85 -0.55 -0.35 -0.45 -0.95 0.65 -3.10 2 -4.10 3.15 -5.95 4.35 -7.25 0.70 -0.75 0.95 -1.40 0.65 -1.60 -0.75 -0.70 -4.45 -1.60 -6.40 -1.60 -2.55 0 -3.55 0.65 -5.10 3.30 -1.85 3.20 -1.80 5.90 0.25 8.85 1.45 2.15 1.50 2.35 0.80 4 -0.50 1.30 -0.55 1.85 -0.15 2.25 0.70 0.70 2.25 0.80 2.65 0.10z m-7.10 -2.95 c0.30 -1.25 0 -1.55 -1.50 -1.55 l-1.20 0 1.05 -1.50 c1 -1.40 1.05 -1.95 0.75 -5.15 -0.45 -4.70 -1.80 -6.65 -4.95 -7.10 -1.65 -0.25 -2.60 -0.10 -4.10 0.65 -1.90 1 -2 1 -3.10 0.10 -1.40 -1.15 -2.60 -0.80 -2.60 0.80 0 0.85 0.40 1.35 1.20 1.70 1.10 0.40 1.20 0.80 1.55 5.15 0.20 3.05 0.15 5.10 -0.20 5.75 -0.65 1.20 -0.30 1.60 1.40 1.60 1.85 0 2.90 -0.75 2.20 -1.60 -0.50 -0.55 -1.65 -7.10 -1.65 -9.15 0 -0.35 0.80 -1.15 1.75 -1.75 1.60 -1 1.95 -1.05 3.30 -0.45 0.85 0.30 1.75 1.15 2 1.80 0.75 1.95 0.55 7.05 -0.35 8.70 -0.85 1.75 -0.90 1.70 0.80 2.40 2.05 0.80 3.35 0.65 3.65 -0.40z m25.50 -2.95 c0.40 -1.30 0.95 -2.35 1.25 -2.35 0.25 0 1.25 1.10 2.20 2.45 0.95 1.35 1.95 2.55 2.20 2.65 0.75 0.25 3 -5.05 3.95 -9.25 1.35 -5.65 0.45 -8.10 -2.95 -8.10 -1.50 0 -2.60 1.60 -1.65 2.40 0.30 0.25 1.05 0.55 1.60 0.70 1.50 0.25 1.60 3.70 0.25 6.40 -0.55 1.10 -1.25 1.90 -1.55 1.75 -0.25 -0.20 -1.15 -1.65 -1.95 -3.30 -0.85 -1.60 -1.70 -2.95 -1.95 -2.95 -0.25 0 -1.05 1.30 -1.80 2.85 l-1.30 2.85 -1.20 -1.45 c-1.35 -1.65 -2.35 -4.45 -1.95 -5.50 0.40 -0.95 -1.50 -1.85 -3.05 -1.45 -1.15 0.30 -1.70 1.40 -0.85 1.80 0.55 0.20 4.10 7.55 4.10 8.45 0 1 3.05 4.95 3.60 4.65 0.20 -0.15 0.70 -1.30 1.05 -2.60z m-31.30 -3.95 c-0.30 -2.70 -1.20 -3.90 -2.20 -3.05 -0.60 0.45 -0.70 1.25 -0.45 3.20 0.15 1.45 0.45 3 0.65 3.50 0.30 0.75 0.40 0.75 1.30 -0.35 0.70 -0.90 0.90 -1.70 0.70 -3.30z m22.15 0.35 c1 0 1 -0.05 0.20 -1.60 l-0.85 -1.65 -0.45 1.25 c-0.25 0.70 -0.85 1.65 -1.30 2.20 -0.80 0.90 -0.80 0.90 0.25 0.35 0.60 -0.30 1.55 -0.55 2.15 -0.55z"/>
  <path d="M241.35 18.65 c-0.15 -0.25 -0.40 -1.55 -0.55 -2.90 -0.30 -2.15 -0.20 -2.75 0.70 -3.90 1.20 -1.50 3.65 -1.85 5.15 -0.70 0.75 0.55 0.60 0.95 -1.55 4.20 -2.15 3.35 -3.20 4.25 -3.75 3.30z"/>
  <path d="M282.65 28.75 c-0.95 -0.65 -1.15 -1.30 -1.15 -3.35 0 -1.60 -0.40 -3.40 -1.05 -4.80 -0.90 -1.85 -1.05 -2.80 -0.80 -6.10 0.30 -4.45 0.70 -5.50 2.95 -7.10 1.60 -1.10 2 -1.15 14.65 -1.35 21.50 -0.35 20.45 -0.40 23.15 1.50 1.30 0.90 2.50 1.90 2.70 2.15 1.10 1.60 3.05 9.40 3.10 12.30 l0.05 3.25 -3.25 0.60 c-1.80 0.35 -4.85 0.60 -6.80 0.65 -3.45 0 -3.60 -0.05 -5.90 -2.05 l-2.30 -2.05 0 -3.95 0 -3.95 -2.05 0 -2.10 0 0.35 2.35 c0.15 1.30 0.55 2.60 0.80 2.85 0.30 0.30 0.50 1.45 0.50 2.65 0 1.85 -0.20 2.20 -1.50 2.90 -1.60 0.85 -6.25 1 -6.75 0.25 -0.20 -0.30 -0.85 -0.20 -1.75 0.25 -0.80 0.40 -2.75 0.75 -4.45 0.75 -2.90 0 -3 0.05 -3.15 1.40 -0.15 1.20 -0.40 1.35 -2.15 1.50 -1.25 0.10 -2.45 -0.15 -3.10 -0.65z m3.15 -3 c-0.45 -1.70 0 -2.40 1.20 -1.75 0.50 0.25 1.90 0.55 3.15 0.55 1.85 0.10 2.60 -0.20 4.30 -1.50 1.15 -0.90 2.05 -1.95 2.05 -2.35 0 -1 -1.85 -0.85 -2.60 0.20 -0.90 1.30 -3.95 1.80 -5.15 0.90 -0.95 -0.70 -0.95 -0.85 1.25 -5.05 1.25 -2.40 2.65 -4.55 3.15 -4.85 0.55 -0.25 0.85 -0.90 0.75 -1.55 -0.10 -0.90 -0.70 -1.25 -2.95 -1.80 -4.90 -1.25 -8 0.55 -8.95 5.25 -0.55 2.60 -0.50 2.95 0.75 5.55 1.10 2.15 1.30 3.15 1.05 4.70 -0.40 2.35 -0.10 2.95 1.30 2.95 0.85 0 0.95 -0.20 0.70 -1.25z m33.25 -2.05 c0.50 -0.60 1.15 -0.70 2.55 -0.50 2.25 0.35 2.20 0.50 1.10 -5 -1.05 -5.55 -1.50 -6.40 -4.10 -8.40 -1.90 -1.50 -2.65 -1.80 -4.75 -1.80 -3.90 0 -5.60 2.20 -3.35 4.25 1.20 1.10 1.25 1.90 0.20 3.50 -0.60 0.95 -0.75 1.85 -0.50 3.50 0.30 1.85 0.70 2.45 2.45 3.75 2.30 1.70 5.30 2.05 6.40 0.70z m-16.90 -0.80 c0.10 -0.35 0 -1.30 -0.20 -2.15 -0.20 -0.80 -0.50 -3.20 -0.70 -5.30 -0.30 -3.60 -0.25 -3.90 0.80 -4.65 1.55 -1.10 1.90 -1 2.45 0.45 0.75 2 3.50 1.35 3.50 -0.80 0 -2.30 -4.50 -3.35 -6.95 -1.65 -0.90 0.65 -1.40 0.70 -2.35 0.25 -1.30 -0.55 -2.70 -0.25 -2.70 0.60 0 0.30 0.50 1.05 1.10 1.70 0.60 0.65 1.15 1.90 1.20 2.80 0.25 4.20 0.75 8.50 1 8.90 0.40 0.65 2.60 0.55 2.85 -0.15z m-7.10 -5.40 c0.75 0 0.95 -0.35 0.95 -1.75 0 -2.05 -0.80 -2.30 -1.60 -0.50 -0.30 0.70 -0.75 1.25 -0.95 1.25 -0.20 0 -0.50 0.35 -0.65 0.80 -0.25 0.60 -0.10 0.75 0.50 0.50 0.40 -0.15 1.20 -0.30 1.75 -0.30z"/>
  <path d="M284.80 17.90 c-2.50 -3.50 1.20 -9.25 4.70 -7.40 1.35 0.75 1.25 1.55 -0.45 3.65 -0.75 1 -1.70 2.50 -2.05 3.35 -0.75 1.80 -1.20 1.85 -2.20 0.40z"/>
  <path d="M313.80 20.90 c-3.65 -3.25 -0.65 -7 4.50 -5.60 1.15 0.30 2.20 2.10 2.20 3.70 0 1.25 -2.30 3 -4.05 3 -0.75 0 -1.95 -0.50 -2.65 -1.10z m3.55 -2.20 c0.35 -0.90 -0.85 -1.90 -1.50 -1.25 -0.45 0.45 0.05 2.05 0.70 2.05 0.25 0 0.60 -0.35 0.80 -0.80z"/>
  <path d="M315.80 13.05 c-1.70 -0.35 -2.75 -2.40 -1.50 -2.90 0.95 -0.35 3.40 1.35 3.60 2.55 0.20 0.85 0.15 0.85 -2.10 0.35z"/>
  <path d="M161.35 27.15 c-0.15 -0.25 -0.25 -3.05 -0.25 -6.30 0 -4.75 -0.15 -6.05 -0.80 -6.80 -0.80 -0.90 -1.10 -4.10 -0.40 -4.75 0.20 -0.20 0.35 -1.75 0.35 -3.45 l0 -3.10 3.10 -0.15 c4.20 -0.20 5.30 0.40 5.05 2.90 l-0.15 1.90 3 0.20 c1.65 0.10 3.65 0 4.40 -0.25 2.15 -0.70 6 -0.15 8.70 1.25 l2.40 1.30 0.05 5.55 c0 3 0.15 5.65 0.35 5.85 0.20 0.20 0.35 1.45 0.35 2.70 0 3.30 -0.65 3.70 -5.15 3.35 -5.65 -0.50 -13.30 -0.60 -13.65 -0.20 -0.50 0.45 -7.10 0.45 -7.35 0z m23.50 -2.45 c0.20 -0.50 -0.05 -1.10 -0.60 -1.50 -0.85 -0.65 -0.85 -0.80 -0.05 -3.65 0.70 -2.45 0.75 -3.40 0.25 -5.25 -1.10 -4.30 -5.25 -6.30 -9.05 -4.30 -1.85 0.95 -2.10 0.95 -2.85 0.25 -0.50 -0.40 -1.35 -0.75 -1.95 -0.75 -1.60 0 -1.45 1.95 0.25 3.25 1.25 1.05 1.30 1.25 1.35 6.65 l0.05 5.60 1.95 0 c1.60 0 1.85 -0.15 1.55 -0.85 -0.15 -0.50 -0.55 -3 -0.85 -5.55 -0.65 -5.40 -0.30 -6.20 2.90 -6.30 1.60 -0.05 2.05 0.20 3.05 1.65 1.40 2.10 1.45 4.25 0.15 7.65 -1 2.70 -0.95 3.15 0.75 3.55 1.95 0.45 2.80 0.35 3.10 -0.45z m-17.65 -0.80 c-0.20 -0.65 -0.60 -4.05 -0.90 -7.65 -0.50 -5.90 -0.65 -6.50 -1.55 -6.65 -0.55 -0.05 -1.55 0.35 -2.15 0.95 -1.05 0.95 -1.10 1.15 -0.45 1.85 0.45 0.55 0.90 2.60 1.15 5.35 0.45 5 0.45 4.60 -0.05 6.15 -0.30 1.05 -0.15 1.10 2 1.10 2.20 0 2.30 -0.05 1.95 -1.10z m2.95 -5.65 c-0.25 -2.20 -0.65 -3.50 -1.10 -3.65 -0.55 -0.20 -0.65 0.40 -0.35 3.45 0.40 4.05 0.65 4.80 1.40 4.05 0.30 -0.30 0.30 -1.80 0.05 -3.85z m9 1.60 c0.60 -1.85 0.65 -2.40 0.05 -3.75 -0.65 -1.60 -1.40 -2 -1.95 -1.10 -0.40 0.65 0.30 7 0.75 7 0.25 0 0.75 -0.95 1.15 -2.15z m-13.75 -14 c-0.10 -0.85 -0.50 -1.10 -1.65 -1.10 -1.30 0 -1.50 0.15 -1.35 1.25 0.05 0.65 0.40 1.35 0.70 1.55 1 0.60 2.50 -0.50 2.30 -1.70z"/>
  <path d="M197.30 26.05 c-1.05 -0.75 -2.15 -1.80 -2.40 -2.25 -0.30 -0.50 -0.60 -4.05 -0.70 -7.85 l-0.20 -6.95 1.60 -1 c1.30 -0.80 2.55 -1 5.80 -1 l4.15 0 2.25 2.25 c2.45 2.50 4.15 5.70 4.20 7.90 0 0.75 0.35 2.20 0.75 3.20 0.90 2.15 0.95 4.85 0.15 5.55 -0.75 0.55 -3.95 1.05 -9.65 1.35 -3.75 0.20 -4.10 0.15 -5.95 -1.20z m8.40 -1.30 c0.55 -0.55 1.30 -0.70 2.75 -0.45 1.65 0.25 2.10 0.15 2.35 -0.55 0.20 -0.50 0.10 -1.30 -0.20 -1.80 -0.35 -0.50 -0.60 -1.60 -0.60 -2.35 0 -2 -2.85 -7.40 -4.85 -9.15 -1.40 -1.20 -2.10 -1.45 -4.30 -1.45 -3.05 0 -4.85 1 -4.85 2.75 0 0.65 0.50 1.55 1.10 1.95 1.10 0.75 1.10 0.85 0.25 2.25 -1.40 2.40 -0.90 7.55 0.70 7.55 0.30 0 1.10 0.45 1.80 1 1.55 1.20 4.75 1.35 5.85 0.25z"/>
  <path d="M200.75 21.75 c-1.60 -1.55 -1.75 -4.45 -0.30 -5.25 4.05 -2.15 8.75 1.85 6.25 5.40 -1.10 1.60 -4.30 1.55 -5.95 -0.15z m4 -2.20 c0 -1.10 -1.60 -1.90 -2.30 -1.20 -0.45 0.45 -0.45 0.80 0.05 1.40 0.75 0.95 2.25 0.80 2.25 -0.20z"/>
  <path d="M200.80 13.25 c0.20 -0.80 0 -1.30 -0.65 -1.65 -1.40 -0.80 -0.35 -1.30 1.30 -0.65 1.60 0.70 3.55 2.35 3.55 3.05 0 0.25 -1 0.45 -2.25 0.40 -2.05 0 -2.20 -0.10 -1.95 -1.15z"/>
  <path d="M49 3.75 c0 -1.70 0.05 -1.75 2 -1.75 1.95 0 2 0.05 2 1.75 0 1.70 -0.05 1.75 -2 1.75 -1.95 0 -2 -0.05 -2 -1.75z"/>
 </g>
 <g fill="#0b1957">
  <path d="M0 18 l0 -18 165 0 165 0 0 18 0 18 -165 0 -165 0 0 -18z m20.20 10.25 c0.80 -0.45 2.35 -0.75 3.40 -0.65 2.65 0.15 3 -0.40 2.15 -3.30 -0.40 -1.35 -0.75 -2.95 -0.75 -3.55 0 -2.80 -3.65 -8.25 -6.15 -9.20 -2.40 -0.90 -5.75 -0.65 -7.35 0.55 -1.85 1.35 -1.90 2.70 -0.25 4.40 l1.25 1.30 -1.25 1.70 c-1.35 1.85 -1.60 3.85 -0.60 5.10 0.30 0.45 1.60 1.65 2.75 2.60 2.45 2 4.40 2.30 6.80 1.05z m23.20 -1.85 c0.10 -0.95 -0.10 -1.40 -0.85 -1.65 -1.25 -0.40 -1.35 -1.35 -0.30 -2.25 0.50 -0.45 0.75 -1.55 0.75 -3.70 0 -4.15 -0.25 -4.80 -2.65 -6.70 -1.90 -1.55 -2.20 -1.65 -4.55 -1.35 -1.40 0.20 -2.95 0.55 -3.45 0.85 -0.60 0.30 -1.10 0.20 -1.65 -0.35 -1 -1 -2.15 -0.95 -3.30 0.10 -1.15 1.05 -1.15 1.60 0.20 3 1 1.05 1.10 1.70 1.10 6.90 0.05 5.25 0.15 5.70 1.05 5.95 2.90 0.80 4.60 0 3.75 -1.70 -0.20 -0.40 -0.50 -2.75 -0.65 -5.15 -0.25 -3.95 -0.20 -4.50 0.65 -5.35 2.15 -2.15 5.20 -0.40 5.75 3.30 0.35 2.40 -0.15 4.35 -1.80 6.75 -1.40 2.05 -0.25 2.95 3.55 2.80 2.05 -0.10 2.25 -0.25 2.40 -1.45z m20.45 0.60 c1.20 -0.90 1.40 -0.95 2.40 -0.30 0.95 0.60 1.30 0.65 2 0.10 0.80 -0.55 0.85 -1.15 0.60 -4.30 -0.20 -2.15 -0.65 -4.10 -1.20 -4.90 -0.45 -0.75 -1.30 -2.20 -1.80 -3.25 -2.30 -4.50 -10.15 -5.65 -12.10 -1.80 -0.75 1.35 -0.70 1.55 0.35 2.95 0.85 1.15 0.95 1.65 0.50 2.10 -1.55 1.55 -0.25 8.40 1.55 8.40 0.35 0 1 0.45 1.50 1 1.15 1.35 4.50 1.35 6.20 0z m178.95 0.60 c0.30 -0.20 0.65 -0.75 0.85 -1.20 0.25 -0.70 0.90 -0.90 2.60 -0.90 4 0 8.70 -3.40 7.40 -5.45 -0.80 -1.25 -1.40 -1.15 -3.40 0.45 -1.10 0.90 -2.50 1.50 -3.30 1.50 -1.60 0 -1.95 -1 -0.70 -2 0.40 -0.35 0.75 -1 0.75 -1.45 0 -0.50 0.55 -1.60 1.25 -2.55 0.70 -0.95 1.25 -2 1.25 -2.35 0 -0.75 2 -2.70 2.50 -2.40 0.70 0.40 3.45 6.55 3.75 8.35 0.15 1.15 0.70 2.10 1.50 2.60 0.65 0.40 1.30 1.25 1.50 1.80 0.15 0.55 0.60 1 0.95 1 0.65 0 2.30 -3.05 2.30 -4.25 0 -1.40 0.90 -0.75 2.75 2 1 1.50 2.05 2.75 2.30 2.75 0.30 0 0.80 -0.75 1.20 -1.65 0.40 -0.95 1.05 -1.95 1.45 -2.35 0.45 -0.35 0.80 -1.05 0.80 -1.55 0 -0.55 0.45 -2.80 1.05 -5 1.15 -4.50 0.95 -7.65 -0.55 -8.45 -1.45 -0.75 -4.35 -0.60 -5.25 0.30 -1.15 1.20 -0.75 2.35 1.20 3.20 1.55 0.70 1.65 0.85 1.40 2.70 -0.15 1.05 -0.60 2.25 -1 2.65 -0.60 0.65 -0.90 0.45 -2.05 -1.55 -2.10 -3.55 -3.85 -4 -4.55 -1.20 -0.90 3.60 -3.25 2.75 -3.25 -1.15 0 -2.15 -0.15 -2.55 -1.15 -2.90 -0.70 -0.25 -2.20 -0.25 -3.65 0 -1.55 0.30 -2.95 0.30 -3.90 -0.05 -1.85 -0.65 -5.35 -0.65 -7 0 -1.80 0.65 -4.20 4.20 -4.60 6.75 -0.25 1.90 -0.10 2.55 1.25 4.75 1.50 2.40 1.55 2.65 0.95 4.60 -0.55 1.80 -0.50 2.10 0.35 2.70 1.05 0.75 2.20 0.90 3.05 0.30z m43.60 -1.25 c0.15 -1.30 0.30 -1.35 3.15 -1.35 3.15 0 5.10 -0.70 6.65 -2.45 1.25 -1.40 1.45 -1.35 2.15 0.45 0.65 1.70 1.85 1.95 4.15 0.75 1.55 -0.80 1.90 -1.65 1 -2.55 -0.55 -0.55 -1.75 -8.60 -1.35 -9 0.15 -0.15 0.70 -0.05 1.25 0.25 1.50 0.80 3.40 0.65 4.35 -0.25 0.75 -0.75 0.85 -0.75 1.75 0.05 1.05 0.95 1.35 3 0.50 3.50 -0.25 0.15 -0.50 1.40 -0.50 2.75 0 2.25 0.15 2.55 2.35 4.50 2.25 1.95 2.50 2.05 4.90 1.85 4.15 -0.40 7.35 -0.85 7.85 -1.15 0.60 -0.40 0.20 -2.85 -1.40 -7.95 -1.45 -4.80 -1.35 -4.65 -4.25 -6.70 -1.85 -1.30 -2.80 -1.60 -5.15 -1.70 -2.55 -0.10 -3 0.05 -3.90 1.15 l-1 1.20 -0.85 -1.15 c-0.85 -1.10 -1.15 -1.15 -3.85 -0.85 -3.95 0.45 -10.40 0.45 -13.30 0.05 -3.35 -0.55 -5.60 0.05 -7.60 1.90 -1.40 1.35 -1.75 2.10 -2.05 4.50 -0.35 2.55 -0.20 3.20 0.95 5.45 1.10 2.05 1.30 2.95 1 4.65 -0.25 1.85 -0.15 2.25 0.85 2.95 1.50 1.05 2.15 0.80 2.35 -0.85z m-200.45 0.30 c0.30 -0.60 0.25 -1.30 -0.20 -2.15 -0.50 -0.95 -0.50 -2 -0.15 -4.35 0.55 -3.80 -0.05 -6.45 -2.05 -8.60 -1.25 -1.30 -1.80 -1.55 -3.90 -1.55 -1.50 0 -3 0.35 -4 0.95 -1.40 0.85 -1.65 0.90 -2.20 0.25 -0.85 -1 -3.15 -0.70 -3.35 0.45 -0.10 0.50 0.15 1.30 0.60 1.80 1.20 1.30 2.15 8.55 1.45 11.05 -0.25 1.10 -0.40 2.10 -0.25 2.25 0.45 0.45 4.40 0.25 4.90 -0.25 0.35 -0.35 0.30 -2.25 -0.15 -5.80 -0.65 -5.70 -0.40 -7.20 1.35 -7.20 4.20 0 5.75 4.75 3.15 9.85 -0.70 1.45 -1.15 2.80 -1 3 0.30 0.25 3.15 0.95 4.70 1.10 0.35 0 0.80 -0.35 1.10 -0.80z m15.30 -0.80 c2.65 -1.70 3.50 -3.60 2.05 -4.80 -0.60 -0.50 -0.95 -0.30 -2.05 1.15 -2.25 2.95 -5.05 2.80 -7.50 -0.40 -0.75 -0.95 -1.45 -2.65 -1.60 -3.75 -0.35 -2.70 1.65 -5.55 3.85 -5.55 1.95 0 3 0.45 3 1.40 0 0.65 -0.15 0.65 -0.95 -0.10 -1.35 -1.25 -2.75 -0.85 -2.95 0.80 -0.30 2.45 0.65 3.40 3.35 3.40 2.75 0 3.50 -0.60 3.85 -3.10 0.15 -1.10 -0.05 -2.15 -0.75 -3.25 -0.90 -1.45 -1.20 -1.55 -4.10 -1.75 -2.75 -0.15 -3.45 0.05 -5.25 1.20 -3.65 2.30 -4.50 5.50 -2.90 10.85 0.55 1.90 1.10 2.70 1.95 3.05 0.65 0.25 1.65 0.90 2.25 1.50 1.60 1.60 4.70 1.35 7.75 -0.65z m19.15 -0.45 c0.15 -1.10 -0.10 -1.50 -1.10 -2 -1.55 -0.70 -1.60 -0.90 -0.30 -2.05 0.75 -0.65 1 -1.45 1 -3.35 0 -6.25 -3.90 -9.60 -9.40 -8.05 l-1.60 0.50 -0.10 -2.35 c-0.05 -1.30 -0.10 -2.85 -0.15 -3.45 0 -0.65 -0.30 -1.40 -0.65 -1.75 -0.75 -0.75 -2.75 0.65 -4 2.75 -0.75 1.30 -0.75 1.45 -0.05 2 0.60 0.45 0.95 2.65 1.50 9.60 l0.70 9 1.85 0.15 c2.30 0.20 3.05 -0.95 2.40 -3.45 -0.25 -0.95 -0.60 -3.10 -0.75 -4.85 -0.30 -2.65 -0.20 -3.30 0.55 -4.15 1.85 -2 4.75 -0.40 5.75 3.20 0.45 1.75 0 3.65 -1.70 7.25 -0.80 1.70 0.75 2.60 4.40 2.40 1.25 -0.05 1.55 -0.30 1.65 -1.40z m15.35 0 c3.45 -2.30 4.15 -5.90 2.25 -11.05 -1.35 -3.60 -3.50 -4.85 -8.40 -4.85 -3.35 0 -3.55 0.10 -5.65 1.95 l-2.20 1.95 0 3.65 c0 4.15 1.10 6.75 3.35 7.80 0.70 0.35 1.55 1 1.90 1.40 0.40 0.50 1.55 0.75 3.45 0.75 2.35 0 3.25 -0.30 5.30 -1.60z m10.65 0 c0.35 -0.45 0.30 -1.70 -0.20 -3.90 -1 -4.85 -0.90 -7.85 0.25 -8.50 1.35 -0.70 1.55 -0.65 1.55 0.45 0 1.45 0.75 1.65 2.75 0.85 1.35 -0.60 1.75 -1.05 1.75 -2 0 -2.90 -3.15 -4.10 -6.80 -2.55 -1.30 0.55 -2.05 0.60 -2.75 0.20 -1.25 -0.65 -2.80 -0.15 -3.45 1.05 -0.35 0.65 -0.25 1.20 0.45 2.10 1 1.25 2.05 6.75 2.05 10.60 l0 2.30 1.95 0 c1.05 0 2.15 -0.30 2.45 -0.60z m21.05 -0.05 c0.35 -0.45 0.40 -1.60 0.05 -3.65 -0.20 -1.60 -0.60 -5.05 -0.75 -7.60 -0.40 -5.15 -0.75 -5.65 -3.25 -4.60 -2.25 0.95 -2.80 1.85 -1.80 2.95 0.70 0.80 0.90 2.15 1.05 7.15 0.10 3.40 0.20 6.20 0.20 6.30 0.15 0.45 4.05 -0.05 4.50 -0.55z m17.95 0.05 c0.95 -0.95 0.70 -2.45 -0.45 -2.75 -0.70 -0.20 -0.90 -0.55 -0.65 -1.10 0.75 -1.85 1.25 -5.10 1.10 -7.55 -0.15 -2.60 -0.20 -2.65 -2.65 -3.95 -2.90 -1.50 -5.30 -1.60 -7.70 -0.40 -1.55 0.75 -1.80 0.75 -2.55 0.10 -0.45 -0.40 -1.45 -0.75 -2.15 -0.75 -1.15 0 -1.35 0.20 -1.35 1.45 0 1 0.40 1.75 1.25 2.40 1.10 0.80 1.25 1.40 1.55 5.50 0.25 3.50 0.20 4.80 -0.30 5.45 -0.60 0.65 -0.55 0.85 0.05 1.25 0.80 0.50 4.95 0.60 4.95 0.15 0 -0.20 -0.35 -2.70 -0.80 -5.65 -0.80 -5.30 -0.80 -5.30 0.30 -6.15 3.85 -3.10 6.75 2.10 4.50 8.15 -0.60 1.70 -0.90 3.25 -0.65 3.45 1 1 4.70 1.25 5.55 0.40z m20.60 -0.05 c0.70 -0.40 2.05 -0.60 3.05 -0.45 2.50 0.25 3.20 -0.70 2.20 -3.05 -0.40 -1 -0.75 -2.45 -0.75 -3.20 -0.05 -2.20 -1.75 -5.40 -4.20 -7.90 -2.10 -2.10 -2.45 -2.25 -4.90 -2.25 -4.90 0 -7.50 2.90 -4.90 5.50 0.95 0.95 0.95 1.10 0.20 2.30 -0.90 1.35 -1.05 4.70 -0.25 6.10 0.25 0.40 1.30 1.40 2.35 2.15 2.20 1.55 5.15 1.85 7.20 0.80z m30 -0.80 c0.75 -1.45 0.60 -2.45 -0.45 -2.80 -0.80 -0.25 -0.85 -0.50 -0.45 -1.65 0.35 -0.85 0.40 -3.05 0.15 -5.75 -0.30 -4.15 -0.40 -4.40 -1.80 -5.10 -1.90 -1 -6.30 -1.15 -8.25 -0.25 -1.40 0.60 -1.70 0.60 -2.45 -0.15 -0.95 -1 -1 -1 -2.30 -0.35 -1.35 0.75 -1.20 2.80 0.25 3.75 1.05 0.70 1.25 1.30 1.55 5.10 0.25 2.90 0.20 4.60 -0.20 5.20 -1.25 2.10 1.05 3.15 4.20 1.95 1.20 -0.45 1.25 -0.55 0.55 -1.60 -0.40 -0.65 -1 -2.95 -1.25 -5.15 -0.50 -3.95 -0.50 -4 0.75 -5.10 1.55 -1.40 2.25 -1.45 3.75 -0.20 0.95 0.80 1.20 1.50 1.35 4.50 0.15 2.70 0 3.85 -0.60 4.80 -1.20 1.80 -1 2.55 0.85 3.15 2.50 0.80 3.75 0.70 4.35 -0.35z m-69.75 -18.05 c0.70 -1.35 0.70 -1.50 -0.20 -2 -1.40 -0.70 -4.05 -0.65 -4.35 0.15 -0.15 0.40 0 1.30 0.25 2 0.75 2 3.25 1.90 4.30 -0.15z"/>
  <path d="M16.75 25 c-1.55 -0.60 -2.55 -2.75 -1.95 -4.40 0.40 -1.15 0.80 -1.35 2.80 -1.50 1.95 -0.15 2.45 0.05 3.10 1 2.05 2.90 -0.60 6.25 -3.95 4.90z"/>
  <path d="M16.65 16 c-0.65 -0.25 -1.15 -0.70 -1.15 -0.95 0 -0.25 -0.15 -0.85 -0.30 -1.25 -0.40 -1.10 1.05 -0.50 3.35 1.30 1.65 1.35 1.65 1.40 0.45 1.35 -0.70 0 -1.75 -0.20 -2.35 -0.45z"/>
  <path d="M60.30 24.50 c-0.80 -0.25 -1.65 -0.75 -1.85 -1.10 -0.70 -1.10 -0.50 -3.80 0.35 -4.60 1.45 -1.45 4.80 -0.85 5.65 1 0.85 1.95 0.65 3.05 -0.75 4.15 -1.45 1.15 -1.35 1.15 -3.40 0.55z"/>
  <path d="M60.70 15.60 c-1.25 -0.10 -1.65 -0.45 -1.85 -1.40 -0.30 -1.60 0.60 -1.55 2.40 0.10 1.55 1.45 1.55 1.50 -0.55 1.30z"/>
  <path d="M241.80 17.70 c-0.65 -1.70 -0.30 -5.05 0.60 -5.85 0.95 -0.90 3.85 -1.15 4.30 -0.45 0.25 0.40 -3.95 7.10 -4.40 7.10 -0.10 0 -0.35 -0.35 -0.50 -0.80z"/>
  <path d="M289.15 20.70 c-0.15 -0.40 0.20 -1.40 0.80 -2.20 0.55 -0.80 1.05 -1.65 1.05 -1.90 0 -0.45 1 -1.85 3.10 -4.30 1.25 -1.50 1.35 -1.50 2.30 -0.65 0.75 0.70 1.10 1.85 1.35 4.65 0.20 2.10 0.20 3.90 0.05 4.05 -0.15 0.15 -0.60 -0.10 -1.05 -0.55 -1.10 -1.05 -1.45 -1 -3.05 0.45 -1.55 1.45 -4.05 1.70 -4.55 0.45z"/>
  <path d="M314.50 20.40 c-1.10 -1.20 -1.30 -3.40 -0.40 -4.30 0.85 -0.85 3.70 -0.75 4.60 0.15 1.40 1.40 1.45 2.75 0.25 4.05 -1.40 1.50 -3.10 1.55 -4.45 0.10z"/>
  <path d="M285 16.45 c-0.80 -1.45 -0.15 -3.75 1.35 -4.95 1.50 -1.15 2.30 -1.25 3.10 -0.30 0.40 0.50 0.25 1.05 -0.70 2.35 -0.65 0.95 -1.50 2.20 -1.80 2.85 -0.75 1.35 -1.25 1.40 -1.95 0.05z"/>
  <path d="M127.15 21.45 c-2.30 -2.45 -2.50 -2.85 -2.65 -4.45 -0.20 -2.15 -0.05 -2.40 1.75 -3.50 2.60 -1.60 4.65 -1.05 7.75 2.05 1.40 1.40 2.50 2.90 2.50 3.35 0 0.45 -0.60 1.65 -1.30 2.70 -1.25 1.75 -1.50 1.90 -3.75 1.90 -2.20 0 -2.60 -0.20 -4.30 -2.05z"/>
  <path d="M202 21.85 c-1.05 -0.55 -1.25 -1 -1.25 -2.85 l0 -2.25 2.15 -0.15 c2.50 -0.20 3.40 0.40 3.85 2.45 0.60 2.80 -1.90 4.25 -4.75 2.80z"/>
  <path d="M202.90 13.65 c-0.50 -0.10 -0.90 -0.55 -0.90 -0.95 0 -0.60 0.20 -0.60 1 -0.20 0.55 0.30 1 0.75 1 1 0 0.30 -0.05 0.45 -0.10 0.45 -0.10 -0.05 -0.55 -0.15 -1 -0.30z"/>
 </g>
</svg>